<svg xmlns="http://www.w3.org/2000/svg" xmlns:xlink="http://www.w3.org/1999/xlink" xmlns:lucid="lucid" width="1864" height="840.52"><g transform="translate(1422 722.9238044948557)" lucid:page-tab-id="0_0"><path d="M-780-238.33v-314a6 6 0 0 1 6-6h43.67v320zM-730.33 81.67H-774a6 6 0 0 1-6-6v-314h49.67z" stroke="#6f7681" stroke-width="4" fill-opacity="0"/><path d="M-730.33-558.33H-26a6 6 0 0 1 6 6v314h-710.33zM-20-238.33v314a6 6 0 0 1-6 6h-704.33v-320z" stroke="#6f7681" stroke-width="4" fill="none"/><path d="M-780-636.6a6 6 0 0 1 6-6h168.95a6 6 0 0 1 6 6v60.27a6 6 0 0 1-6 6H-774a6 6 0 0 1-6-6z" fill="#6f7681"/><use xlink:href="#a" transform="matrix(1,0,0,1,-764,-621.7944711615228) translate(0 27.21111111111111)"/><use xlink:href="#b" transform="matrix(-1.8369701987210297e-16,-1,1,-1.8369701987210297e-16,-779.9999999999999,-238.32780449485585) translate(113.53703703703704 30.77777777777778)"/><use xlink:href="#c" transform="matrix(-1.8369701987210297e-16,-1,1,-1.8369701987210297e-16,-779.9999999999999,81.67219550514403) translate(146.35802469135803 30.77777777777778)"/><path d="M-882.37-427.2c16.57 0 30 13.43 30 30v320c0 16.56-13.43 30-30 30h-160c-16.57 0-30-13.44-30-30v-320c0-16.57 13.43-30 30-30z" stroke="#6f7681" stroke-width="4" fill-opacity="0"/><path d="M-1072.37-494.54a6 6 0 0 1 6-6h96.7a6 6 0 0 1 6 6v49.33a6 6 0 0 1-6 6h-96.7a6 6 0 0 1-6-6z" fill="#6f7681"/><use xlink:href="#d" transform="matrix(1,0,0,1,-1060.373226585749,-484.9389022474282) translate(0 25.22222222222222)"/><path d="M390-524.12c16.57 0 30 13.43 30 30v428.67c0 16.57-13.43 30-30 30H50c-16.57 0-30-13.43-30-30v-428.67c0-16.57 13.43-30 30-30z" stroke="#6f7681" stroke-width="4" fill-opacity="0"/><path d="M20-602.12a6 6 0 0 1 6-6h175.37a6 6 0 0 1 6 6v60a6 6 0 0 1-6 6H26a6 6 0 0 1-6-6z" fill="#6f7681"/><use xlink:href="#e" transform="matrix(1,0,0,1,36,-587.319296472134) translate(0 26.666666666666664)"/><path d="M-1154.75-550.33c16.57 0 30 13.43 30 30v552c0 16.57-13.43 30-30 30H-1370c-16.57 0-30-13.43-30-30v-552c0-16.57 13.43-30 30-30z" stroke="#6f7681" stroke-width="4" fill-opacity="0"/><path d="M-1400-628.33a6 6 0 0 1 6-6h123.52a6 6 0 0 1 6 6v60a6 6 0 0 1-6 6H-1394a6 6 0 0 1-6-6z" fill="#6f7681"/><use xlink:href="#f" transform="matrix(1,0,0,1,-1384,-613.5333333333334) translate(0 26.666666666666664)"/><path d="M-1098.25-684.92a16 16 0 0 1 16-16h259.75a16 16 0 0 1 16 16v176.8a16 16 0 0 1-16 16h-259.75a16 16 0 0 1-16-16z" stroke="#000" stroke-opacity="0" stroke-width="4" fill-opacity="0"/><path d="M-1042.25-627.32c0 6.62-5.37 12-12 12s-12-5.38-12-12c0-6.63 5.37-12 12-12s12 5.37 12 12z" stroke="#000" stroke-opacity=".25" fill="#b8f5ed"/><path d="M-1042.25-594.52c0 6.62-5.37 12-12 12s-12-5.38-12-12c0-6.63 5.37-12 12-12s12 5.37 12 12z" stroke="#000" stroke-opacity=".25" fill="#fc9432"/><path d="M-1042.25-561.72c0 6.62-5.37 12-12 12s-12-5.38-12-12c0-6.63 5.37-12 12-12s12 5.37 12 12z" stroke="#000" stroke-opacity=".25" fill="#cfe4ff"/><path d="M-1042.25-528.92c0 6.62-5.37 12-12 12s-12-5.38-12-12c0-6.63 5.37-12 12-12s12 5.37 12 12z" stroke="#000" stroke-opacity=".25" fill="#ffdda6"/><use xlink:href="#g" transform="matrix(1,0,0,1,-1030.2511211449914,-639.3238044948557) translate(0 16.633333333333333)"/><use xlink:href="#h" transform="matrix(1,0,0,1,-1030.2511211449914,-639.3238044948557) translate(51.66666666666666 16.633333333333333)"/><use xlink:href="#i" transform="matrix(1,0,0,1,-1030.2511211449914,-606.5238044948558) translate(0 16.633333333333333)"/><use xlink:href="#j" transform="matrix(1,0,0,1,-1030.2511211449914,-606.5238044948558) translate(72.2185185185185 16.633333333333333)"/><use xlink:href="#k" transform="matrix(1,0,0,1,-1030.2511211449914,-573.7238044948558) translate(0 16.633333333333333)"/><use xlink:href="#i" transform="matrix(1,0,0,1,-1030.2511211449914,-540.9238044948557) translate(0 16.633333333333333)"/><use xlink:href="#l" transform="matrix(1,0,0,1,-1030.2511211449914,-540.9238044948557) translate(72.2185185185185 16.633333333333333)"/><path d="M-1338.67-337.8a8 8 0 0 1 8-8h144.38a8 8 0 0 1 8 8v112c-26.78-20.04-43.46-20.04-53.56-20.04-16.04 0-37.37 20.04-53.4 20.04-9.95 0-26.8 0-53.4-20.04z" stroke="#6f7681" stroke-width="4" fill="#b8f5ed"/><use xlink:href="#m" transform="matrix(1,0,0,1,-1333.1074287514068,-340.23500000000007) translate(24.413580246913586 49.29827777777778)"/><use xlink:href="#n" transform="matrix(1,0,0,1,-1333.1074287514068,-340.23500000000007) translate(55.27777777777778 49.29827777777778)"/><path d="M-1360-510.48a8 8 0 0 1 8-8h184a8 8 0 0 1 8 8v123.8a8 8 0 0 1-8 8h-184a8 8 0 0 1-8-8z" stroke="#6f7681" stroke-width="4" fill="#b8f5ed"/><use xlink:href="#o" transform="matrix(1,0,0,1,-1354.439,-512.9206666666668) translate(29.5962962962963 45.793416666666666)"/><use xlink:href="#p" transform="matrix(1,0,0,1,-1354.439,-512.9206666666668) translate(107.45185185185186 45.793416666666666)"/><use xlink:href="#q" transform="matrix(1,0,0,1,-1354.439,-512.9206666666668) translate(15.609259259259243 66.59341666666667)"/><use xlink:href="#r" transform="matrix(1,0,0,1,-1354.439,-512.9206666666668) translate(49.312962962962956 66.59341666666667)"/><use xlink:href="#s" transform="matrix(1,0,0,1,-1354.439,-512.9206666666668) translate(98.37592592592593 66.59341666666667)"/><use xlink:href="#t" transform="matrix(1,0,0,1,-1354.439,-512.9206666666668) translate(21.001851851851836 87.39341666666668)"/><use xlink:href="#u" transform="matrix(1,0,0,1,-1354.439,-512.9206666666668) translate(86.24259259259259 87.39341666666668)"/><use xlink:href="#v" transform="matrix(1,0,0,1,-1354.439,-512.9206666666668) translate(105.50185185185185 87.39341666666668)"/><use xlink:href="#w" transform="matrix(1,0,0,1,-1354.439,-512.9206666666668) translate(123.75 87.39341666666668)"/><path d="M-1210.37-192.9c17.7 0 32.08 17.9 32.08 40s-14.36 40-32.07 40h-96.22c-17.7 0-32.07-17.9-32.07-40s14.36-40 32.08-40z" stroke="#6f7681" stroke-width="4" fill="#fc9432"/><use xlink:href="#x" transform="matrix(1,0,0,1,-1333.1074287514068,-187.33700000000007) translate(49.16666666666667 25.798277777777777)"/><use xlink:href="#y" transform="matrix(1,0,0,1,-1333.1074287514068,-187.33700000000007) translate(25.030864197530857 52.46494444444445)"/><path d="M-1258.48-108.9v4.16" stroke="#6f7681" stroke-width="4" stroke-linejoin="round" fill="none"/><path d="M-1256.5-108.85h-3.96v-2.05h3.95z" stroke="#6f7681" stroke-width=".05" fill="#6f7681"/><path d="M-1258.48-88.47l-4.64-14.27h9.27z" stroke="#6f7681" stroke-width="4" fill="#6f7681"/><path d="M-1338.67-72a8 8 0 0 1 8-8h144.38a8 8 0 0 1 8 8V32a8 8 0 0 1-8 8h-144.37a8 8 0 0 1-8-8z" stroke="#6f7681" stroke-width="4" fill="#fc9432"/><use xlink:href="#z" transform="matrix(1,0,0,1,-1333.1074287514068,-74.4390000000001) translate(17.685185185185187 45.32952777777778)"/><use xlink:href="#A" transform="matrix(1,0,0,1,-1333.1074287514068,-74.4390000000001) translate(66.94444444444444 45.32952777777778)"/><use xlink:href="#B" transform="matrix(1,0,0,1,-1333.1074287514068,-74.4390000000001) translate(24.475308641975307 71.99619444444446)"/><use xlink:href="#C" transform="matrix(1,0,0,1,-1333.1074287514068,-74.4390000000001) translate(50.3395061728395 71.99619444444446)"/><path d="M-1040-180c26.34 19.92 43 19.92 52.84 19.92 15.87 0 36.97-19.92 52.84-19.92 10 0 26.5 0 53 19.92V-60c-26.5-20.04-43-20.04-53-20.04-15.87 0-36.97 20.04-52.84 20.04-9.84 0-26.5 0-52.84-20.04z" stroke="#6f7681" stroke-width="4" fill="#fc9432"/><use xlink:href="#D" transform="matrix(1,0,0,1,-1034.439,-174.439) translate(23.413580246913586 58.95452777777778)"/><use xlink:href="#E" transform="matrix(1,0,0,1,-1034.439,-174.439) translate(54.27777777777778 58.95452777777778)"/><path d="M-221.72-463.22a8 8 0 0 1 8-8H-68a8 8 0 0 1 8 8v137.8c-27-24.35-43.83-24.35-54.02-24.35-16.17 0-37.68 24.35-53.85 24.35-10.03 0-27 0-53.85-24.35z" stroke="#6f7681" stroke-width="4" fill="#fc9432"/><use xlink:href="#F" transform="matrix(1,0,0,1,-216.16229669755936,-465.6592756563789) translate(15.12962962962963 24.954527777777777)"/><use xlink:href="#G" transform="matrix(1,0,0,1,-216.16229669755936,-465.6592756563789) translate(18.771604938271597 51.62119444444445)"/><use xlink:href="#H" transform="matrix(1,0,0,1,-216.16229669755936,-465.6592756563789) translate(32.29012345679011 51.62119444444445)"/><use xlink:href="#G" transform="matrix(1,0,0,1,-216.16229669755936,-465.6592756563789) translate(30.499999999999996 78.28786111111111)"/><use xlink:href="#I" transform="matrix(1,0,0,1,-216.16229669755936,-465.6592756563789) translate(44.01851851851852 78.28786111111111)"/><use xlink:href="#G" transform="matrix(1,0,0,1,-216.16229669755936,-465.6592756563789) translate(27.10493827160494 104.9545277777778)"/><use xlink:href="#J" transform="matrix(1,0,0,1,-216.16229669755936,-465.6592756563789) translate(40.623456790123456 104.9545277777778)"/><path d="M-1040-400.38a8 8 0 0 1 8-8h144.37a8 8 0 0 1 8 8v137.8c-26.78-24.36-43.46-24.36-53.56-24.36-16.03 0-37.36 24.35-53.4 24.35-9.94 0-26.78 0-53.4-24.34z" stroke="#6f7681" stroke-width="4" fill="#fc9432"/><use xlink:href="#K" transform="matrix(1,0,0,1,-1034.439,-402.8232876820011) translate(22.16049382716049 24.954527777777777)"/><use xlink:href="#L" transform="matrix(1,0,0,1,-1034.439,-402.8232876820011) translate(51.35802469135802 24.954527777777777)"/><use xlink:href="#M" transform="matrix(1,0,0,1,-1034.439,-402.8232876820011) translate(21.94444444444444 51.62119444444445)"/><use xlink:href="#N" transform="matrix(1,0,0,1,-1034.439,-402.8232876820011) translate(39.876543209876544 78.28786111111111)"/><use xlink:href="#O" transform="matrix(1,0,0,1,-1034.439,-402.8232876820011) translate(46.01851851851852 104.9545277777778)"/><path d="M-567.7-218.33c17.7 0 32.07 17.9 32.07 40s-14.36 40-32.08 40h-96.23c-17.72 0-32.08-17.9-32.08-40s14.35-40 32.07-40z" stroke="#6f7681" stroke-width="4" fill="#cfe4ff"/><use xlink:href="#P" transform="matrix(1,0,0,1,-690.4453462962675,-212.7668044948562) translate(13.796296296296287 25.798277777777777)"/><use xlink:href="#Q" transform="matrix(1,0,0,1,-690.4453462962675,-212.7668044948562) translate(26.944444444444432 52.46494444444445)"/><path d="M-567.7-138.33c17.7 0 32.07 27.2 32.07 60.75S-550-16.83-567.7-16.83h-96.23c-17.72 0-32.08-27.2-32.08-60.75s14.35-60.75 32.07-60.75z" stroke="#6f7681" stroke-width="4" fill="#cfe4ff"/><use xlink:href="#R" transform="matrix(1,0,0,1,-690.4453462962675,-132.7668044948562) translate(10.70987654320987 21.798444444444435)"/><use xlink:href="#S" transform="matrix(1,0,0,1,-690.4453462962675,-132.7668044948562) translate(16.481481481481477 48.465111111111106)"/><use xlink:href="#T" transform="matrix(1,0,0,1,-690.4453462962675,-132.7668044948562) translate(35 48.465111111111106)"/><use xlink:href="#U" transform="matrix(1,0,0,1,-690.4453462962675,-132.7668044948562) translate(94.1358024691358 48.465111111111106)"/><use xlink:href="#V" transform="matrix(1,0,0,1,-690.4453462962675,-132.7668044948562) translate(26.88271604938271 75.13177777777778)"/><use xlink:href="#W" transform="matrix(1,0,0,1,-690.4453462962675,-132.7668044948562) translate(26.944444444444432 101.79844444444444)"/><path d="M-567.7-18.33c17.7 0 32.07 17.9 32.07 40s-14.36 40-32.08 40h-96.23c-17.72 0-32.08-17.9-32.08-40s14.35-40 32.07-40z" stroke="#6f7681" stroke-width="4" fill="#cfe4ff"/><use xlink:href="#X" transform="matrix(1,0,0,1,-690.4453462962675,-12.766804494855968) translate(51.6358024691358 38.73577777777778)"/><path d="M-551.7-438.33c17.7 0 32.07 17.9 32.07 40s-14.36 40-32.07 40h-96.22c-17.72 0-32.08-17.9-32.08-40s14.36-40 32.08-40z" stroke="#6f7681" stroke-width="4" fill="#fc9432"/><use xlink:href="#Y" transform="matrix(1,0,0,1,-674.439,-432.7668044948562) translate(29.999999999999996 25.798277777777777)"/><use xlink:href="#Z" transform="matrix(1,0,0,1,-674.439,-432.7668044948562) translate(48.51851851851852 25.798277777777777)"/><use xlink:href="#aa" transform="matrix(1,0,0,1,-674.439,-432.7668044948562) translate(23.271604938271597 52.46494444444445)"/><path d="M-406.22-453.54a10.7 10.7 0 0 1 12.8 0l67.4 50.42a6 6 0 0 1 0 9.58l-67.4 50.42a10.7 10.7 0 0 1-12.8 0l-67.38-50.42a6 6 0 0 1 0-9.58z" stroke="#6f7681" stroke-width="4" fill="#fc9432"/><use xlink:href="#ab" transform="matrix(1,0,0,1,-474.439,-452.7668044948562) translate(25.66751234567901 58.95452777777778)"/><path d="M-406.76-214.36a14.04 14.04 0 0 1 13.9 0l56.28 32.08a4.56 4.56 0 0 1 0 7.92l-56.28 32.08a14.04 14.04 0 0 1-13.9 0l-56.3-32.08a4.56 4.56 0 0 1 0-7.92z" stroke="#6f7681" stroke-width="4" fill="#cfe4ff"/><use xlink:href="#ab" transform="matrix(1,0,0,1,-464.439,-212.76127565637879) translate(15.67901234567901 40.79844444444444)"/><path d="M-406.76-114.36a14.04 14.04 0 0 1 13.9 0l56.28 32.08a4.56 4.56 0 0 1 0 7.92l-56.28 32.08a14.04 14.04 0 0 1-13.9 0l-56.3-32.08a4.56 4.56 0 0 1 0-7.92z" stroke="#6f7681" stroke-width="4" fill="#cfe4ff"/><use xlink:href="#ab" transform="matrix(1,0,0,1,-464.439,-112.76127565637879) translate(15.67901234567901 40.79844444444444)"/><path d="M-406.76-14.36a14.04 14.04 0 0 1 13.9 0l56.28 32.08a4.56 4.56 0 0 1 0 7.92l-56.28 32.08a14.04 14.04 0 0 1-13.9 0l-56.3-32.08a4.56 4.56 0 0 1 0-7.92z" stroke="#6f7681" stroke-width="4" fill="#cfe4ff"/><use xlink:href="#ac" transform="matrix(1,0,0,1,-464.439,-12.761275656378906) translate(15.67901234567901 40.79844444444444)"/><path d="M-231.72-135.76a8 8 0 0 1 8-8h147.55a8 8 0 0 1 8 8v105.8c-27.3-19-44.33-19-54.63-19-16.35 0-38.1 19-54.46 19-10.14 0-27.3 0-54.46-19z" stroke="#6f7681" stroke-width="4" fill="#cfe4ff"/><path d="M-222.64-125.72a8 8 0 0 1 8-8H-67.1a8 8 0 0 1 8 8v105.8c-27.3-19-44.3-19-54.6-19-16.37 0-38.12 19-54.48 19-10.13 0-27.3 0-54.46-19z" stroke="#6f7681" stroke-width="4" fill="#cfe4ff"/><path d="M-213.55-115.68a8 8 0 0 1 8-8H-58a8 8 0 0 1 8 8v105.8c-27.3-19-44.32-19-54.63-19-16.35 0-38.1 19-54.46 19-10.13 0-27.3 0-54.45-19z" stroke="#6f7681" stroke-width="4" fill="#cfe4ff"/><use xlink:href="#ad" transform="matrix(1,0,0,1,-207.98996702780343,-118.12178546030034) translate(16.12962962962963 21.631777777777778)"/><use xlink:href="#ae" transform="matrix(1,0,0,1,-207.98996702780343,-118.12178546030034) translate(19.771604938271597 48.29844444444445)"/><use xlink:href="#af" transform="matrix(1,0,0,1,-207.98996702780343,-118.12178546030034) translate(33.29012345679011 48.29844444444445)"/><use xlink:href="#ae" transform="matrix(1,0,0,1,-207.98996702780343,-118.12178546030034) translate(31.499999999999996 74.96511111111113)"/><use xlink:href="#ag" transform="matrix(1,0,0,1,-207.98996702780343,-118.12178546030034) translate(45.01851851851852 74.96511111111113)"/><path d="M-848.37-237.2h26.18a6 6 0 0 0 6-6v-151.76a6 6 0 0 1 6-6h5.46" stroke="#6f7681" stroke-width="4" fill="none"/><path d="M-848.32-235.23h-2.05v-3.95h2.05z" stroke="#6f7681" stroke-width=".05" fill="#6f7681"/><path d="M-788.47-400.96l-14.27 4.63v-9.27z" stroke="#6f7681" stroke-width="4" fill="#6f7681"/><path d="M-848.37-237.2h26.18a6 6 0 0 1 6 6V-90.2a6 6 0 0 0 6 6h5.46" stroke="#6f7681" stroke-width="4" fill="none"/><path d="M-848.32-235.23h-2.05v-3.95h2.05z" stroke="#6f7681" stroke-width=".05" fill="#6f7681"/><path d="M-788.47-84.18l-14.27 4.64v-9.27z" stroke="#6f7681" stroke-width="4" fill="#6f7681"/><path d="M132.7-248.9a10.42 10.42 0 0 1 12.68 0L244-173.2a6.14 6.14 0 0 1 0 9.73l-98.62 75.7a10.42 10.42 0 0 1-12.7 0l-98.6-75.7a6.14 6.14 0 0 1 0-9.74z" stroke="#6f7681" stroke-width="4" fill="#b8f5ed"/><use xlink:href="#ah" transform="matrix(1,0,0,1,33.282021362543325,-248.2194343003234) translate(36.06055555555557 71.48577777777777)"/><use xlink:href="#ai" transform="matrix(1,0,0,1,33.282021362543325,-248.2194343003234) translate(137.9124074074074 71.48577777777777)"/><use xlink:href="#aj" transform="matrix(1,0,0,1,33.282021362543325,-248.2194343003234) translate(51.807469135802464 98.15244444444446)"/><path d="M-46-76.83h40a6 6 0 0 0 6-6v-368.9a6 6 0 0 1 6-6h50.26" stroke="#6f7681" stroke-width="4" fill="none"/><path d="M-45.95-74.85H-48v-3.95h2.05z" stroke="#6f7681" stroke-width=".05" fill="#6f7681"/><path d="M72.53-457.72l-14.27 4.64v-9.28z" stroke="#6f7681" stroke-width="4" fill="#6f7681"/><path d="M-56-393.52h50a6 6 0 0 0 6-6v-52.2a6 6 0 0 1 6-6h50.26" stroke="#6f7681" stroke-width="4" fill="none"/><path d="M-55.95-391.54H-58v-3.95h2.05z" stroke="#6f7681" stroke-width=".05" fill="#6f7681"/><path d="M72.53-457.72l-14.27 4.64v-9.28z" stroke="#6f7681" stroke-width="4" fill="#6f7681"/><path d="M139.03-81.6v23.63a6 6 0 0 0 6 6H174a6 6 0 0 1 6 6v2.9" stroke="#6f7681" stroke-width="4" fill="none"/><path d="M137.4-83.72l1.63.1 1.62-.1.36-.07v2.24h-3.94v-2.23z" stroke="#6f7681" stroke-width=".05" fill="#6f7681"/><path d="M180-26.8l-4.63-14.27h9.26z" stroke="#6f7681" stroke-width="4" fill="#6f7681"/><path d="M234.35-18.33c31.46 0 56.96 25.5 56.96 56.96S265.8 95.6 234.36 95.6h-108.7C94.2 95.6 68.7 70.1 68.7 38.62c0-31.46 25.5-56.96 56.95-56.96z" stroke="#6f7681" stroke-width="4" fill="#b8f5ed"/><use xlink:href="#ak" transform="matrix(1,0,0,1,74.25054643079181,-12.766804494855968) translate(64.7037037037037 56.89202777777778)"/><path d="M-531.67-179.4h31.2v.02h10.48" stroke="#6f7681" stroke-width="4" fill="none"/><path d="M-531.62-177.4h-2.06l.05-.9-.1-3.06h2.1z" stroke="#6f7681" stroke-width=".05" fill="#6f7681"/><path d="M-473.72-179.38l-14.27 4.63v-9.27z" stroke="#6f7681" stroke-width="4" fill="#6f7681"/><path d="M-531.63-77.58h41.6" stroke="#6f7681" stroke-width="4" fill="none"/><path d="M-531.58-75.6h-2.13l.07-1.94v-.9l-.06-1.1h2.12z" stroke="#6f7681" stroke-width=".05" fill="#6f7681"/><path d="M-473.76-77.58l-14.26 4.64v-9.28z" stroke="#6f7681" stroke-width="4" fill="#6f7681"/><path d="M-531.63 21.67h41.53" stroke="#6f7681" stroke-width="4" fill="none"/><path d="M-531.58 23.65h-2.17l.12-1.95-.07-2h2.12z" stroke="#6f7681" stroke-width=".05" fill="#6f7681"/><path d="M-473.83 21.68l-14.27 4.63v-9.26z" stroke="#6f7681" stroke-width="4" fill="#6f7681"/><path d="M-330.26-78.32h47.18a.1.1 0 0 0 .1-.1.1.1 0 0 1 .08-.1h26.44" stroke="#6f7681" stroke-width="4" fill="none"/><path d="M-330.2-76.35h-2.4l.2-.6.14-1.37-.15-1.38-.2-.6h2.4z" stroke="#6f7681" stroke-width=".05" fill="#6f7681"/><path d="M-240.2-78.5l-14.26 4.63v-9.27z" stroke="#6f7681" stroke-width="4" fill="#6f7681"/><path d="M-330.26 21.68h40.04a6 6 0 0 0 6-6v-88a6 6 0 0 1 6-6h21.94" stroke="#6f7681" stroke-width="4" fill="none"/><path d="M-330.2 23.65h-2.4l.2-.6.14-1.37-.15-1.38-.2-.6h2.4z" stroke="#6f7681" stroke-width=".05" fill="#6f7681"/><path d="M-240.2-78.45l-14.22 4.75-.08-9.27z" stroke="#6f7681" stroke-width="4" fill="#6f7681"/><path d="M-1258.48-231.8v14.16" stroke="#6f7681" stroke-width="4" fill="none"/><path d="M-1256.5-231.74h-3.96v-1.06l3.95-2z" stroke="#6f7681" stroke-width=".05" fill="#6f7681"/><path d="M-1258.48-201.37l-4.64-14.27h9.27z" stroke="#6f7681" stroke-width="4" fill="#6f7681"/><path d="M-1260-374.7v5.7" stroke="#6f7681" stroke-width="4" fill="none"/><path d="M-1258.03-374.64h-3.94v-2.05h3.94z" stroke="#6f7681" stroke-width=".05" fill="#6f7681"/><path d="M-1258.94-354.25l-5.64-13.9 9.24-.66z" stroke="#6f7681" stroke-width="4" fill="#6f7681"/><path d="M-1120.75-244.33h23.64" stroke="#6f7681" stroke-width="4" fill="none"/><path d="M-1120.7-242.36h-2.05v-3.95h2.06z" stroke="#6f7681" stroke-width=".05" fill="#6f7681"/><path d="M-1080.85-244.33l-14.26 4.64v-9.27z" stroke="#6f7681" stroke-width="4" fill="#6f7681"/><path d="M-330.26-178.32h40.04a6 6 0 0 1 6 6v87.8a6 6 0 0 0 6 6h21.76" stroke="#6f7681" stroke-width="4" fill="none"/><path d="M-330.2-176.35h-2.4l.2-.6.14-1.37-.15-1.38-.2-.6h2.4z" stroke="#6f7681" stroke-width=".05" fill="#6f7681"/><path d="M-240.2-78.5l-14.26 4.63v-9.27z" stroke="#6f7681" stroke-width="4" fill="#6f7681"/><path d="M-515.63-398.33h14.9" stroke="#6f7681" stroke-width="4" fill="none"/><path d="M-515.57-396.35h-2.17l.12-1.95-.07-2h2.13z" stroke="#6f7681" stroke-width=".05" fill="#6f7681"/><path d="M-484.48-398.33l-14.26 4.64v-9.26z" stroke="#6f7681" stroke-width="4" fill="#6f7681"/><path d="M-319.62-398.33h73.15" stroke="#6f7681" stroke-width="4" fill="none"/><path d="M-319.57-396.35h-2.33l.14-.5.14-1.48-.14-1.47-.14-.5h2.33z" stroke="#6f7681" stroke-width=".05" fill="#6f7681"/><path d="M-230.2-398.33l-14.26 4.64v-9.26z" stroke="#6f7681" stroke-width="4" fill="#6f7681"/><path d="M57.65-328.14V-216.56" stroke="#6f7681" stroke-width="4" fill="none"/><path d="M59.62-328.36v.27h-3.95v-3.83z" stroke="#6f7681" stroke-width=".05" fill="#6f7681"/><path d="M57.65-200.3L53-214.57h9.28z" stroke="#6f7681" stroke-width="4" fill="#6f7681"/><path d="M294-433.05a9.1 9.1 0 0 1 12 0l88 77.3a7.03 7.03 0 0 1 0 10.57l-88 77.3a9.1 9.1 0 0 1-12 0l-88-77.3a7.03 7.03 0 0 1 0-10.56z" stroke="#6f7681" stroke-width="4" fill="#cfe4ff"/><g><use xlink:href="#al" transform="matrix(1,0,0,1,205.561,-432.7668044948562) translate(42.70987654320987 88.51702777777777)"/></g><path d="M133.1-432.96a8.85 8.85 0 0 1 11.87 0l87.16 78.8a7.23 7.23 0 0 1 0 10.73l-87.16 78.8a8.85 8.85 0 0 1-11.87 0l-87.17-78.8a7.23 7.23 0 0 1 0-10.73z" stroke="#6f7681" stroke-width="4" fill="#ffdda6"/><g><use xlink:href="#am" transform="matrix(1,0,0,1,45.561,-432.7668044948562) translate(38.623456790123456 89.73577777777777)"/><use xlink:href="#an" transform="matrix(1,0,0,1,45.561,-432.7668044948562) translate(44.79629629629629 89.73577777777777)"/></g><path d="M309.85-492.12c19 0 34.4 15.4 34.4 34.4s-15.4 34.4-34.4 34.4H114.4c-19 0-34.4-15.4-34.4-34.4s15.4-34.4 34.4-34.4z" stroke="#282c33" stroke-width="2" fill="#fff"/><g><use xlink:href="#ao" transform="matrix(1,0,0,1,85,-487.1238044948558) translate(41.75925925925927 32.52777777777778)"/><use xlink:href="#ap" transform="matrix(1,0,0,1,85,-487.1238044948558) translate(146.57407407407408 32.52777777777778)"/></g><path d="M300-261.6v203.63a6 6 0 0 1-6 6H186a6 6 0 0 0-6 6v2.9" stroke="#6f7681" stroke-width="4" fill="none"/><path d="M298.4-263.7l1.6.1 1.6-.1.38-.1v2.25h-3.96v-2.25z" stroke="#6f7681" stroke-width=".05" fill="#6f7681"/><path d="M180-26.8l-4.63-14.27h9.26z" stroke="#6f7681" stroke-width="4" fill="#6f7681"/><path d="M-1040-280c26.34 19.92 43 19.92 52.84 19.92 15.87 0 36.97-19.92 52.84-19.92 10 0 26.5 0 53 19.92V-160c-26.5-20.04-43-20.04-53-20.04-15.87 0-36.97 20.04-52.84 20.04-9.84 0-26.5 0-52.84-20.04z" stroke="#6f7681" stroke-width="4" fill="#fc9432"/><g><use xlink:href="#aq" transform="matrix(1,0,0,1,-1034.439,-274.439) translate(21.592592592592585 45.32952777777778)"/><use xlink:href="#ar" transform="matrix(1,0,0,1,-1034.439,-274.439) translate(38.845679012345684 71.99619444444446)"/></g><defs><path fill="#fff" d="M30 0v-248h187v28H63v79h144v27H63v87h162V0H30" id="as"/><path fill="#fff" d="M141 0L90-78 38 0H4l68-98-65-92h35l48 74 47-74h35l-64 92 68 98h-35" id="at"/><path fill="#fff" d="M59-47c-2 24 18 29 38 22v24C64 9 27 4 27-40v-127H5v-23h24l9-43h21v43h35v23H59v120" id="au"/><path fill="#fff" d="M114-163C36-179 61-72 57 0H25l-1-190h30c1 12-1 29 2 39 6-27 23-49 58-41v29" id="av"/><path fill="#fff" d="M141-36C126-15 110 5 73 4 37 3 15-17 15-53c-1-64 63-63 125-63 3-35-9-54-41-54-24 1-41 7-42 31l-33-3c5-37 33-52 76-52 45 0 72 20 72 64v82c-1 20 7 32 28 27v20c-31 9-61-2-59-35zM48-53c0 20 12 33 32 33 41-3 63-29 60-74-43 2-92-5-92 41" id="aw"/><path fill="#fff" d="M96-169c-40 0-48 33-48 73s9 75 48 75c24 0 41-14 43-38l32 2c-6 37-31 61-74 61-59 0-76-41-82-99-10-93 101-131 147-64 4 7 5 14 7 22l-32 3c-4-21-16-35-41-35" id="ax"/><path fill="#fff" d="M24-231v-30h32v30H24zM24 0v-190h32V0H24" id="ay"/><path fill="#fff" d="M100-194c62-1 85 37 85 99 1 63-27 99-86 99S16-35 15-95c0-66 28-99 85-99zM99-20c44 1 53-31 53-75 0-43-8-75-51-75s-53 32-53 75 10 74 51 75" id="az"/><path fill="#fff" d="M117-194c89-4 53 116 60 194h-32v-121c0-31-8-49-39-48C34-167 62-67 57 0H25l-1-190h30c1 10-1 24 2 32 11-22 29-35 61-36" id="aA"/><g id="a"><use transform="matrix(0.09320987654320984,0,0,0.09320987654320984,0,0)" xlink:href="#as"/><use transform="matrix(0.09320987654320984,0,0,0.09320987654320984,22.37037037037036,0)" xlink:href="#at"/><use transform="matrix(0.09320987654320984,0,0,0.09320987654320984,39.14814814814813,0)" xlink:href="#au"/><use transform="matrix(0.09320987654320984,0,0,0.09320987654320984,48.46913580246911,0)" xlink:href="#av"/><use transform="matrix(0.09320987654320984,0,0,0.09320987654320984,59.56111111111108,0)" xlink:href="#aw"/><use transform="matrix(0.09320987654320984,0,0,0.09320987654320984,78.20308641975305,0)" xlink:href="#ax"/><use transform="matrix(0.09320987654320984,0,0,0.09320987654320984,94.98086419753082,0)" xlink:href="#au"/><use transform="matrix(0.09320987654320984,0,0,0.09320987654320984,104.30185185185181,0)" xlink:href="#ay"/><use transform="matrix(0.09320987654320984,0,0,0.09320987654320984,111.66543209876538,0)" xlink:href="#az"/><use transform="matrix(0.09320987654320984,0,0,0.09320987654320984,130.30740740740734,0)" xlink:href="#aA"/></g><path d="M197 0v-115H63V0H30v-248h33v105h134v-105h34V0h-34" id="aB"/><path d="M84 4C-5 8 30-112 23-190h32v120c0 31 7 50 39 49 72-2 45-101 50-169h31l1 190h-30c-1-10 1-25-2-33-11 22-28 36-60 37" id="aC"/><path d="M210-169c-67 3-38 105-44 169h-31v-121c0-29-5-50-35-48C34-165 62-65 56 0H25l-1-190h30c1 10-1 24 2 32 10-44 99-50 107 0 11-21 27-35 58-36 85-2 47 119 55 194h-31v-121c0-29-5-49-35-48" id="aD"/><path d="M141-36C126-15 110 5 73 4 37 3 15-17 15-53c-1-64 63-63 125-63 3-35-9-54-41-54-24 1-41 7-42 31l-33-3c5-37 33-52 76-52 45 0 72 20 72 64v82c-1 20 7 32 28 27v20c-31 9-61-2-59-35zM48-53c0 20 12 33 32 33 41-3 63-29 60-74-43 2-92-5-92 41" id="aE"/><path d="M117-194c89-4 53 116 60 194h-32v-121c0-31-8-49-39-48C34-167 62-67 57 0H25l-1-190h30c1 10-1 24 2 32 11-22 29-35 61-36" id="aF"/><g id="b"><use transform="matrix(0.0802469135802469,0,0,0.0802469135802469,0,0)" xlink:href="#aB"/><use transform="matrix(0.0802469135802469,0,0,0.0802469135802469,20.783950617283946,0)" xlink:href="#aC"/><use transform="matrix(0.0802469135802469,0,0,0.0802469135802469,36.83333333333333,0)" xlink:href="#aD"/><use transform="matrix(0.0802469135802469,0,0,0.0802469135802469,60.827160493827144,0)" xlink:href="#aE"/><use transform="matrix(0.0802469135802469,0,0,0.0802469135802469,76.87654320987653,0)" xlink:href="#aF"/></g><path d="M205 0l-28-72H64L36 0H1l101-248h38L239 0h-34zm-38-99l-47-123c-12 45-31 82-46 123h93" id="aG"/><path d="M33 0v-248h34V0H33" id="aH"/><g id="c"><use transform="matrix(0.0802469135802469,0,0,0.0802469135802469,0,0)" xlink:href="#aG"/><use transform="matrix(0.0802469135802469,0,0,0.0802469135802469,19.259259259259256,0)" xlink:href="#aH"/></g><path fill="#fff" d="M33 0v-248h34V0H33" id="aI"/><path fill="#fff" d="M115-194c55 1 70 41 70 98S169 2 115 4C84 4 66-9 55-30l1 105H24l-1-265h31l2 30c10-21 28-34 59-34zm-8 174c40 0 45-34 45-75s-6-73-45-74c-42 0-51 32-51 76 0 43 10 73 51 73" id="aJ"/><path fill="#fff" d="M84 4C-5 8 30-112 23-190h32v120c0 31 7 50 39 49 72-2 45-101 50-169h31l1 190h-30c-1-10 1-25-2-33-11 22-28 36-60 37" id="aK"/><path fill="#fff" d="M135-143c-3-34-86-38-87 0 15 53 115 12 119 90S17 21 10-45l28-5c4 36 97 45 98 0-10-56-113-15-118-90-4-57 82-63 122-42 12 7 21 19 24 35" id="aL"/><g id="d"><use transform="matrix(0.08641975308641973,0,0,0.08641975308641973,0,0)" xlink:href="#aI"/><use transform="matrix(0.08641975308641973,0,0,0.08641975308641973,8.641975308641973,0)" xlink:href="#aA"/><use transform="matrix(0.08641975308641973,0,0,0.08641975308641973,25.925925925925917,0)" xlink:href="#aJ"/><use transform="matrix(0.08641975308641973,0,0,0.08641975308641973,43.20987654320986,0)" xlink:href="#aK"/><use transform="matrix(0.08641975308641973,0,0,0.08641975308641973,60.4938271604938,0)" xlink:href="#au"/><use transform="matrix(0.08641975308641973,0,0,0.08641975308641973,69.13580246913578,0)" xlink:href="#aL"/></g><path fill="#fff" d="M108 0H70L1-190h34L89-25l56-165h34" id="aM"/><path fill="#fff" d="M24 0v-261h32V0H24" id="aN"/><g id="e"><use transform="matrix(0.09259259259259256,0,0,0.09259259259259256,0,0)" xlink:href="#as"/><use transform="matrix(0.09259259259259256,0,0,0.09259259259259256,22.222222222222214,0)" xlink:href="#aM"/><use transform="matrix(0.09259259259259256,0,0,0.09259259259259256,38.88888888888887,0)" xlink:href="#aw"/><use transform="matrix(0.09259259259259256,0,0,0.09259259259259256,57.40740740740739,0)" xlink:href="#aN"/><use transform="matrix(0.09259259259259256,0,0,0.09259259259259256,64.7222222222222,0)" xlink:href="#aK"/><use transform="matrix(0.09259259259259256,0,0,0.09259259259259256,83.2407407407407,0)" xlink:href="#aw"/><use transform="matrix(0.09259259259259256,0,0,0.09259259259259256,101.7592592592592,0)" xlink:href="#au"/><use transform="matrix(0.09259259259259256,0,0,0.09259259259259256,111.01851851851846,0)" xlink:href="#ay"/><use transform="matrix(0.09259259259259256,0,0,0.09259259259259256,118.33333333333327,0)" xlink:href="#az"/><use transform="matrix(0.09259259259259256,0,0,0.09259259259259256,136.8518518518518,0)" xlink:href="#aA"/></g><path fill="#fff" d="M185-189c-5-48-123-54-124 2 14 75 158 14 163 119 3 78-121 87-175 55-17-10-28-26-33-46l33-7c5 56 141 63 141-1 0-78-155-14-162-118-5-82 145-84 179-34 5 7 8 16 11 25" id="aO"/><path fill="#fff" d="M100-194c63 0 86 42 84 106H49c0 40 14 67 53 68 26 1 43-12 49-29l28 8c-11 28-37 45-77 45C44 4 14-33 15-96c1-61 26-98 85-98zm52 81c6-60-76-77-97-28-3 7-6 17-6 28h103" id="aP"/><path fill="#fff" d="M16-82v-28h88v28H16" id="aQ"/><path fill="#fff" d="M232-93c-1 65-40 97-104 97C67 4 28-28 28-90v-158h33c8 89-33 224 67 224 102 0 64-133 71-224h33v155" id="aR"/><g id="f"><use transform="matrix(0.09259259259259256,0,0,0.09259259259259256,0,0)" xlink:href="#aO"/><use transform="matrix(0.09259259259259256,0,0,0.09259259259259256,22.222222222222214,0)" xlink:href="#aP"/><use transform="matrix(0.09259259259259256,0,0,0.09259259259259256,40.740740740740726,0)" xlink:href="#au"/><use transform="matrix(0.09259259259259256,0,0,0.09259259259259256,49.999999999999986,0)" xlink:href="#aQ"/><use transform="matrix(0.09259259259259256,0,0,0.09259259259259256,61.018518518518505,0)" xlink:href="#aR"/><use transform="matrix(0.09259259259259256,0,0,0.09259259259259256,84.99999999999997,0)" xlink:href="#aJ"/></g><path d="M30 0v-248h33v221h125V0H30" id="aS"/><path d="M100-194c63 0 86 42 84 106H49c0 40 14 67 53 68 26 1 43-12 49-29l28 8c-11 28-37 45-77 45C44 4 14-33 15-96c1-61 26-98 85-98zm52 81c6-60-76-77-97-28-3 7-6 17-6 28h103" id="aT"/><path d="M85-194c31 0 48 13 60 33l-1-100h32l1 261h-30c-2-10 0-23-3-31C134-8 116 4 85 4 32 4 16-35 15-94c0-66 23-100 70-100zm9 24c-40 0-46 34-46 75 0 40 6 74 45 74 42 0 51-32 51-76 0-42-9-74-50-73" id="aU"/><g id="g"><use transform="matrix(0.0574074074074074,0,0,0.0574074074074074,0,0)" xlink:href="#aS"/><use transform="matrix(0.0574074074074074,0,0,0.0574074074074074,11.48148148148148,0)" xlink:href="#aT"/><use transform="matrix(0.0574074074074074,0,0,0.0574074074074074,22.96296296296296,0)" xlink:href="#aE"/><use transform="matrix(0.0574074074074074,0,0,0.0574074074074074,34.444444444444436,0)" xlink:href="#aU"/></g><path d="M59-47c-2 24 18 29 38 22v24C64 9 27 4 27-40v-127H5v-23h24l9-43h21v43h35v23H59v120" id="aV"/><path d="M106-169C34-169 62-67 57 0H25v-261h32l-1 103c12-21 28-36 61-36 89 0 53 116 60 194h-32v-121c2-32-8-49-39-48" id="aW"/><path d="M100-194c62-1 85 37 85 99 1 63-27 99-86 99S16-35 15-95c0-66 28-99 85-99zM99-20c44 1 53-31 53-75 0-43-8-75-51-75s-53 32-53 75 10 74 51 75" id="aX"/><path d="M114-163C36-179 61-72 57 0H25l-1-190h30c1 12-1 29 2 39 6-27 23-49 58-41v29" id="aY"/><path d="M135-143c-3-34-86-38-87 0 15 53 115 12 119 90S17 21 10-45l28-5c4 36 97 45 98 0-10-56-113-15-118-90-4-57 82-63 122-42 12 7 21 19 24 35" id="aZ"/><g id="h"><use transform="matrix(0.0574074074074074,0,0,0.0574074074074074,0,0)" xlink:href="#aG"/><use transform="matrix(0.0574074074074074,0,0,0.0574074074074074,13.777777777777777,0)" xlink:href="#aC"/><use transform="matrix(0.0574074074074074,0,0,0.0574074074074074,25.259259259259256,0)" xlink:href="#aV"/><use transform="matrix(0.0574074074074074,0,0,0.0574074074074074,30.999999999999996,0)" xlink:href="#aW"/><use transform="matrix(0.0574074074074074,0,0,0.0574074074074074,42.481481481481474,0)" xlink:href="#aX"/><use transform="matrix(0.0574074074074074,0,0,0.0574074074074074,53.962962962962955,0)" xlink:href="#aY"/><use transform="matrix(0.0574074074074074,0,0,0.0574074074074074,60.79444444444444,0)" xlink:href="#aZ"/></g><g id="i"><use transform="matrix(0.0574074074074074,0,0,0.0574074074074074,0,0)" xlink:href="#aB"/><use transform="matrix(0.0574074074074074,0,0,0.0574074074074074,14.868518518518517,0)" xlink:href="#aC"/><use transform="matrix(0.0574074074074074,0,0,0.0574074074074074,26.349999999999994,0)" xlink:href="#aD"/><use transform="matrix(0.0574074074074074,0,0,0.0574074074074074,43.514814814814805,0)" xlink:href="#aE"/><use transform="matrix(0.0574074074074074,0,0,0.0574074074074074,54.996296296296286,0)" xlink:href="#aF"/></g><path d="M30 0v-248h187v28H63v79h144v27H63v87h162V0H30" id="ba"/><path d="M141 0L90-78 38 0H4l68-98-65-92h35l48 74 47-74h35l-64 92 68 98h-35" id="bb"/><path d="M96-169c-40 0-48 33-48 73s9 75 48 75c24 0 41-14 43-38l32 2c-6 37-31 61-74 61-59 0-76-41-82-99-10-93 101-131 147-64 4 7 5 14 7 22l-32 3c-4-21-16-35-41-35" id="bc"/><g id="j"><use transform="matrix(0.0574074074074074,0,0,0.0574074074074074,0,0)" xlink:href="#ba"/><use transform="matrix(0.0574074074074074,0,0,0.0574074074074074,13.777777777777777,0)" xlink:href="#bb"/><use transform="matrix(0.0574074074074074,0,0,0.0574074074074074,24.111111111111107,0)" xlink:href="#aV"/><use transform="matrix(0.0574074074074074,0,0,0.0574074074074074,29.851851851851848,0)" xlink:href="#aY"/><use transform="matrix(0.0574074074074074,0,0,0.0574074074074074,36.68333333333333,0)" xlink:href="#aE"/><use transform="matrix(0.0574074074074074,0,0,0.0574074074074074,48.16481481481481,0)" xlink:href="#bc"/><use transform="matrix(0.0574074074074074,0,0,0.0574074074074074,58.49814814814815,0)" xlink:href="#aV"/><use transform="matrix(0.0574074074074074,0,0,0.0574074074074074,64.23888888888888,0)" xlink:href="#aX"/><use transform="matrix(0.0574074074074074,0,0,0.0574074074074074,75.72037037037036,0)" xlink:href="#aY"/><use transform="matrix(0.0574074074074074,0,0,0.0574074074074074,82.55185185185184,0)" xlink:href="#aZ"/></g><g id="k"><use transform="matrix(0.0574074074074074,0,0,0.0574074074074074,0,0)" xlink:href="#aG"/><use transform="matrix(0.0574074074074074,0,0,0.0574074074074074,13.777777777777777,0)" xlink:href="#aH"/></g><path d="M108 0H70L1-190h34L89-25l56-165h34" id="bd"/><path d="M24 0v-261h32V0H24" id="be"/><g id="l"><use transform="matrix(0.0574074074074074,0,0,0.0574074074074074,0,0)" xlink:href="#ba"/><use transform="matrix(0.0574074074074074,0,0,0.0574074074074074,13.777777777777777,0)" xlink:href="#bd"/><use transform="matrix(0.0574074074074074,0,0,0.0574074074074074,24.111111111111107,0)" xlink:href="#aE"/><use transform="matrix(0.0574074074074074,0,0,0.0574074074074074,35.59259259259259,0)" xlink:href="#be"/><use transform="matrix(0.0574074074074074,0,0,0.0574074074074074,40.12777777777777,0)" xlink:href="#aC"/><use transform="matrix(0.0574074074074074,0,0,0.0574074074074074,51.609259259259254,0)" xlink:href="#aE"/><use transform="matrix(0.0574074074074074,0,0,0.0574074074074074,63.090740740740735,0)" xlink:href="#aV"/><use transform="matrix(0.0574074074074074,0,0,0.0574074074074074,68.83148148148148,0)" xlink:href="#aX"/><use transform="matrix(0.0574074074074074,0,0,0.0574074074074074,80.31296296296296,0)" xlink:href="#aY"/><use transform="matrix(0.0574074074074074,0,0,0.0574074074074074,87.14444444444443,0)" xlink:href="#aZ"/></g><path d="M99-251c64 0 84 50 84 122C183-37 130 33 47-8c-14-7-20-23-25-40l30-5c6 39 69 39 84 7 9-19 16-44 16-74-10 22-31 35-62 35-49 0-73-33-73-83 0-54 28-83 82-83zm-1 141c31-1 51-18 51-49 0-36-14-67-51-67-34 0-49 23-49 58 0 34 15 58 49 58" id="bf"/><path d="M126-127c33 6 58 20 58 59 0 88-139 92-164 29-3-8-5-16-6-25l32-3c6 27 21 44 54 44 32 0 52-15 52-46 0-38-36-46-79-43v-28c39 1 72-4 72-42 0-27-17-43-46-43-28 0-47 15-49 41l-32-3c6-42 35-63 81-64 48-1 79 21 79 65 0 36-21 52-52 59" id="bg"/><g id="m"><use transform="matrix(0.06172839506172839,0,0,0.06172839506172839,0,0)" xlink:href="#bf"/><use transform="matrix(0.06172839506172839,0,0,0.06172839506172839,12.345679012345679,0)" xlink:href="#bg"/></g><path d="M30-248c87 1 191-15 191 75 0 78-77 80-158 76V0H30v-248zm33 125c57 0 124 11 124-50 0-59-68-47-124-48v98" id="bh"/><path d="M115-194c55 1 70 41 70 98S169 2 115 4C84 4 66-9 55-30l1 105H24l-1-265h31l2 30c10-21 28-34 59-34zm-8 174c40 0 45-34 45-75s-6-73-45-74c-42 0-51 32-51 76 0 43 10 73 51 73" id="bi"/><g id="n"><use transform="matrix(0.06172839506172839,0,0,0.06172839506172839,0,0)" xlink:href="#bh"/><use transform="matrix(0.06172839506172839,0,0,0.06172839506172839,14.814814814814813,0)" xlink:href="#aE"/><use transform="matrix(0.06172839506172839,0,0,0.06172839506172839,27.160493827160494,0)" xlink:href="#bi"/><use transform="matrix(0.06172839506172839,0,0,0.06172839506172839,39.50617283950617,0)" xlink:href="#aT"/><use transform="matrix(0.06172839506172839,0,0,0.06172839506172839,51.85185185185185,0)" xlink:href="#aY"/><use transform="matrix(0.06172839506172839,0,0,0.06172839506172839,59.197530864197525,0)" xlink:href="#aZ"/></g><path d="M24-231v-30h32v30H24zM24 0v-190h32V0H24" id="bj"/><g id="o"><use transform="matrix(0.048148148148148155,0,0,0.048148148148148155,0,0)" xlink:href="#aS"/><use transform="matrix(0.048148148148148155,0,0,0.048148148148148155,9.629629629629632,0)" xlink:href="#bj"/><use transform="matrix(0.048148148148148155,0,0,0.048148148148148155,13.433333333333335,0)" xlink:href="#aV"/><use transform="matrix(0.048148148148148155,0,0,0.048148148148148155,18.24814814814815,0)" xlink:href="#aT"/><use transform="matrix(0.048148148148148155,0,0,0.048148148148148155,27.877777777777784,0)" xlink:href="#aY"/><use transform="matrix(0.048148148148148155,0,0,0.048148148148148155,33.60740740740741,0)" xlink:href="#aE"/><use transform="matrix(0.048148148148148155,0,0,0.048148148148148155,43.23703703703704,0)" xlink:href="#aV"/><use transform="matrix(0.048148148148148155,0,0,0.048148148148148155,48.05185185185186,0)" xlink:href="#aC"/><use transform="matrix(0.048148148148148155,0,0,0.048148148148148155,57.68148148148149,0)" xlink:href="#aY"/><use transform="matrix(0.048148148148148155,0,0,0.048148148148148155,63.41111111111112,0)" xlink:href="#aT"/></g><g id="p"><use transform="matrix(0.048148148148148155,0,0,0.048148148148148155,0,0)" xlink:href="#aZ"/><use transform="matrix(0.048148148148148155,0,0,0.048148148148148155,8.666666666666668,0)" xlink:href="#aT"/><use transform="matrix(0.048148148148148155,0,0,0.048148148148148155,18.296296296296298,0)" xlink:href="#aE"/><use transform="matrix(0.048148148148148155,0,0,0.048148148148148155,27.92592592592593,0)" xlink:href="#aY"/><use transform="matrix(0.048148148148148155,0,0,0.048148148148148155,33.65555555555556,0)" xlink:href="#bc"/><use transform="matrix(0.048148148148148155,0,0,0.048148148148148155,42.32222222222222,0)" xlink:href="#aW"/></g><g id="q"><use transform="matrix(0.048148148148148155,0,0,0.048148148148148155,0,0)" xlink:href="#aE"/><use transform="matrix(0.048148148148148155,0,0,0.048148148148148155,9.629629629629632,0)" xlink:href="#aF"/><use transform="matrix(0.048148148148148155,0,0,0.048148148148148155,19.259259259259263,0)" xlink:href="#aU"/></g><g id="r"><use transform="matrix(0.048148148148148155,0,0,0.048148148148148155,0,0)" xlink:href="#bi"/><use transform="matrix(0.048148148148148155,0,0,0.048148148148148155,9.629629629629632,0)" xlink:href="#aE"/><use transform="matrix(0.048148148148148155,0,0,0.048148148148148155,19.259259259259263,0)" xlink:href="#bi"/><use transform="matrix(0.048148148148148155,0,0,0.048148148148148155,28.888888888888893,0)" xlink:href="#aT"/><use transform="matrix(0.048148148148148155,0,0,0.048148148148148155,38.518518518518526,0)" xlink:href="#aY"/></g><path d="M177-190C167-65 218 103 67 71c-23-6-38-20-44-43l32-5c15 47 100 32 89-28v-30C133-14 115 1 83 1 29 1 15-40 15-95c0-56 16-97 71-98 29-1 48 16 59 35 1-10 0-23 2-32h30zM94-22c36 0 50-32 50-73 0-42-14-75-50-75-39 0-46 34-46 75s6 73 46 73" id="bk"/><g id="s"><use transform="matrix(0.048148148148148155,0,0,0.048148148148148155,0,0)" xlink:href="#aZ"/><use transform="matrix(0.048148148148148155,0,0,0.048148148148148155,8.666666666666668,0)" xlink:href="#bc"/><use transform="matrix(0.048148148148148155,0,0,0.048148148148148155,17.333333333333336,0)" xlink:href="#aY"/><use transform="matrix(0.048148148148148155,0,0,0.048148148148148155,23.062962962962967,0)" xlink:href="#aT"/><use transform="matrix(0.048148148148148155,0,0,0.048148148148148155,32.6925925925926,0)" xlink:href="#aT"/><use transform="matrix(0.048148148148148155,0,0,0.048148148148148155,42.32222222222223,0)" xlink:href="#aF"/><use transform="matrix(0.048148148148148155,0,0,0.048148148148148155,51.951851851851856,0)" xlink:href="#bj"/><use transform="matrix(0.048148148148148155,0,0,0.048148148148148155,55.75555555555557,0)" xlink:href="#aF"/><use transform="matrix(0.048148148148148155,0,0,0.048148148148148155,65.3851851851852,0)" xlink:href="#bk"/></g><path d="M87 75C49 33 22-17 22-94c0-76 28-126 65-167h31c-38 41-64 92-64 168S80 34 118 75H87" id="bl"/><path d="M185-189c-5-48-123-54-124 2 14 75 158 14 163 119 3 78-121 87-175 55-17-10-28-26-33-46l33-7c5 56 141 63 141-1 0-78-155-14-162-118-5-82 145-84 179-34 5 7 8 16 11 25" id="bm"/><g id="t"><use transform="matrix(0.048148148148148155,0,0,0.048148148148148155,0,0)" xlink:href="#bl"/><use transform="matrix(0.048148148148148155,0,0,0.048148148148148155,5.72962962962963,0)" xlink:href="#bm"/><use transform="matrix(0.048148148148148155,0,0,0.048148148148148155,17.28518518518519,0)" xlink:href="#bi"/><use transform="matrix(0.048148148148148155,0,0,0.048148148148148155,26.914814814814818,0)" xlink:href="#bj"/><use transform="matrix(0.048148148148148155,0,0,0.048148148148148155,30.718518518518522,0)" xlink:href="#be"/><use transform="matrix(0.048148148148148155,0,0,0.048148148148148155,34.522222222222226,0)" xlink:href="#be"/><use transform="matrix(0.048148148148148155,0,0,0.048148148148148155,38.32592592592593,0)" xlink:href="#bj"/><use transform="matrix(0.048148148148148155,0,0,0.048148148148148155,42.12962962962963,0)" xlink:href="#aE"/><use transform="matrix(0.048148148148148155,0,0,0.048148148148148155,51.75925925925927,0)" xlink:href="#aZ"/></g><g id="u"><use transform="matrix(0.048148148148148155,0,0,0.048148148148148155,0,0)" xlink:href="#aT"/><use transform="matrix(0.048148148148148155,0,0,0.048148148148148155,9.629629629629632,0)" xlink:href="#aV"/></g><g id="v"><use transform="matrix(0.048148148148148155,0,0,0.048148148148148155,0,0)" xlink:href="#aE"/><use transform="matrix(0.048148148148148155,0,0,0.048148148148148155,9.629629629629632,0)" xlink:href="#be"/></g><path d="M101-251c82-7 93 87 43 132L82-64C71-53 59-42 53-27h129V0H18c2-99 128-94 128-182 0-28-16-43-45-43s-46 15-49 41l-32-3c6-41 34-60 81-64" id="bn"/><path d="M101-251c68 0 85 55 85 127S166 4 100 4C33 4 14-52 14-124c0-73 17-127 87-127zm-1 229c47 0 54-49 54-102s-4-102-53-102c-51 0-55 48-55 102 0 53 5 102 54 102" id="bo"/><path d="M155-56V0h-30v-56H8v-25l114-167h33v167h35v25h-35zm-30-156c-27 46-58 90-88 131h88v-131" id="bp"/><path d="M33-261c38 41 65 92 65 168S71 34 33 75H2C39 34 66-17 66-93S39-220 2-261h31" id="bq"/><g id="w"><use transform="matrix(0.048148148148148155,0,0,0.048148148148148155,0,0)" xlink:href="#bn"/><use transform="matrix(0.048148148148148155,0,0,0.048148148148148155,9.629629629629632,0)" xlink:href="#bo"/><use transform="matrix(0.048148148148148155,0,0,0.048148148148148155,19.259259259259263,0)" xlink:href="#bn"/><use transform="matrix(0.048148148148148155,0,0,0.048148148148148155,28.888888888888893,0)" xlink:href="#bp"/><use transform="matrix(0.048148148148148155,0,0,0.048148148148148155,38.518518518518526,0)" xlink:href="#bq"/></g><g id="x"><use transform="matrix(0.06172839506172839,0,0,0.06172839506172839,0,0)" xlink:href="#aH"/><use transform="matrix(0.06172839506172839,0,0,0.06172839506172839,6.172839506172839,0)" xlink:href="#aF"/><use transform="matrix(0.06172839506172839,0,0,0.06172839506172839,18.51851851851852,0)" xlink:href="#bj"/><use transform="matrix(0.06172839506172839,0,0,0.06172839506172839,23.395061728395063,0)" xlink:href="#aV"/><use transform="matrix(0.06172839506172839,0,0,0.06172839506172839,29.567901234567902,0)" xlink:href="#bj"/><use transform="matrix(0.06172839506172839,0,0,0.06172839506172839,34.44444444444444,0)" xlink:href="#aE"/><use transform="matrix(0.06172839506172839,0,0,0.06172839506172839,46.79012345679012,0)" xlink:href="#be"/></g><path d="M140-251c81 0 123 46 123 126C263-53 228-8 163 1c7 30 30 48 69 40v23c-55 16-95-15-103-61C56-3 17-48 17-125c0-80 42-126 123-126zm0 227c63 0 89-41 89-101s-29-99-89-99c-61 0-89 39-89 99S79-25 140-24" id="br"/><g id="y"><use transform="matrix(0.06172839506172839,0,0,0.06172839506172839,0,0)" xlink:href="#br"/><use transform="matrix(0.06172839506172839,0,0,0.06172839506172839,17.28395061728395,0)" xlink:href="#aC"/><use transform="matrix(0.06172839506172839,0,0,0.06172839506172839,29.629629629629626,0)" xlink:href="#aT"/><use transform="matrix(0.06172839506172839,0,0,0.06172839506172839,41.9753086419753,0)" xlink:href="#aZ"/><use transform="matrix(0.06172839506172839,0,0,0.06172839506172839,53.08641975308642,0)" xlink:href="#aV"/><use transform="matrix(0.06172839506172839,0,0,0.06172839506172839,59.25925925925926,0)" xlink:href="#bj"/><use transform="matrix(0.06172839506172839,0,0,0.06172839506172839,64.1358024691358,0)" xlink:href="#aX"/><use transform="matrix(0.06172839506172839,0,0,0.06172839506172839,76.48148148148148,0)" xlink:href="#aF"/><use transform="matrix(0.06172839506172839,0,0,0.06172839506172839,88.82716049382717,0)" xlink:href="#aZ"/></g><g id="z"><use transform="matrix(0.06172839506172839,0,0,0.06172839506172839,0,0)" xlink:href="#bh"/><use transform="matrix(0.06172839506172839,0,0,0.06172839506172839,14.814814814814813,0)" xlink:href="#bj"/><use transform="matrix(0.06172839506172839,0,0,0.06172839506172839,19.691358024691354,0)" xlink:href="#be"/><use transform="matrix(0.06172839506172839,0,0,0.06172839506172839,24.5679012345679,0)" xlink:href="#aX"/><use transform="matrix(0.06172839506172839,0,0,0.06172839506172839,36.913580246913575,0)" xlink:href="#aV"/></g><path d="M233-177c-1 41-23 64-60 70L243 0h-38l-65-103H63V0H30v-248c88 3 205-21 203 71zM63-129c60-2 137 13 137-47 0-61-80-42-137-45v92" id="bs"/><g id="A"><use transform="matrix(0.06172839506172839,0,0,0.06172839506172839,0,0)" xlink:href="#bs"/><use transform="matrix(0.06172839506172839,0,0,0.06172839506172839,15.987654320987653,0)" xlink:href="#aX"/><use transform="matrix(0.06172839506172839,0,0,0.06172839506172839,28.333333333333332,0)" xlink:href="#aC"/><use transform="matrix(0.06172839506172839,0,0,0.06172839506172839,40.67901234567901,0)" xlink:href="#aF"/><use transform="matrix(0.06172839506172839,0,0,0.06172839506172839,53.02469135802469,0)" xlink:href="#aU"/></g><g id="B"><use transform="matrix(0.06172839506172839,0,0,0.06172839506172839,0,0)" xlink:href="#bl"/><use transform="matrix(0.06172839506172839,0,0,0.06172839506172839,7.345679012345679,0)" xlink:href="#bg"/></g><g id="C"><use transform="matrix(0.06172839506172839,0,0,0.06172839506172839,0,0)" xlink:href="#bi"/><use transform="matrix(0.06172839506172839,0,0,0.06172839506172839,12.345679012345679,0)" xlink:href="#aE"/><use transform="matrix(0.06172839506172839,0,0,0.06172839506172839,24.691358024691358,0)" xlink:href="#bi"/><use transform="matrix(0.06172839506172839,0,0,0.06172839506172839,37.03703703703704,0)" xlink:href="#aT"/><use transform="matrix(0.06172839506172839,0,0,0.06172839506172839,49.382716049382715,0)" xlink:href="#aY"/><use transform="matrix(0.06172839506172839,0,0,0.06172839506172839,56.72839506172839,0)" xlink:href="#aZ"/><use transform="matrix(0.06172839506172839,0,0,0.06172839506172839,67.8395061728395,0)" xlink:href="#bq"/></g><g id="D"><use transform="matrix(0.06172839506172839,0,0,0.06172839506172839,0,0)" xlink:href="#bg"/><use transform="matrix(0.06172839506172839,0,0,0.06172839506172839,12.345679012345679,0)" xlink:href="#bg"/></g><g id="E"><use transform="matrix(0.06172839506172839,0,0,0.06172839506172839,0,0)" xlink:href="#bh"/><use transform="matrix(0.06172839506172839,0,0,0.06172839506172839,14.814814814814813,0)" xlink:href="#aE"/><use transform="matrix(0.06172839506172839,0,0,0.06172839506172839,27.160493827160494,0)" xlink:href="#bi"/><use transform="matrix(0.06172839506172839,0,0,0.06172839506172839,39.50617283950617,0)" xlink:href="#aT"/><use transform="matrix(0.06172839506172839,0,0,0.06172839506172839,51.85185185185185,0)" xlink:href="#aY"/><use transform="matrix(0.06172839506172839,0,0,0.06172839506172839,59.197530864197525,0)" xlink:href="#aZ"/></g><path fill="#3a414a" d="M24 0v-248h195v40H76v63h132v40H76v65h150V0H24" id="bt"/><path fill="#3a414a" d="M144 0l-44-69L55 0H2l70-98-66-92h53l41 62 40-62h54l-67 91 71 99h-54" id="bu"/><path fill="#3a414a" d="M115-3C79 11 28 4 28-45v-112H4v-33h27l15-45h31v45h36v33H77v99c-1 23 16 31 38 25v30" id="bv"/><path fill="#3a414a" d="M135-150c-39-12-60 13-60 57V0H25l-1-190h47c2 13-1 29 3 40 6-28 27-53 61-41v41" id="bw"/><path fill="#3a414a" d="M133-34C117-15 103 5 69 4 32 3 11-16 11-54c-1-60 55-63 116-61 1-26-3-47-28-47-18 1-26 9-28 27l-52-2c7-38 36-58 82-57s74 22 75 68l1 82c-1 14 12 18 25 15v27c-30 8-71 5-69-32zm-48 3c29 0 43-24 42-57-32 0-66-3-65 30 0 17 8 27 23 27" id="bx"/><path fill="#3a414a" d="M190-63c-7 42-38 67-86 67-59 0-84-38-90-98-12-110 154-137 174-36l-49 2c-2-19-15-32-35-32-30 0-35 28-38 64-6 74 65 87 74 30" id="by"/><path fill="#3a414a" d="M25-224v-37h50v37H25zM25 0v-190h50V0H25" id="bz"/><path fill="#3a414a" d="M110-194c64 0 96 36 96 99 0 64-35 99-97 99-61 0-95-36-95-99 0-62 34-99 96-99zm-1 164c35 0 45-28 45-65 0-40-10-65-43-65-34 0-45 26-45 65 0 36 10 65 43 65" id="bA"/><path fill="#3a414a" d="M135-194c87-1 58 113 63 194h-50c-7-57 23-157-34-157-59 0-34 97-39 157H25l-1-190h47c2 12-1 28 3 38 12-26 28-41 61-42" id="bB"/><path fill="#3a414a" d="M137-138c1-29-70-34-71-4 15 46 118 7 119 86 1 83-164 76-172 9l43-7c4 19 20 25 44 25 33 8 57-30 24-41C81-84 22-81 20-136c-2-80 154-74 161-7" id="bC"/><g id="F"><use transform="matrix(0.06172839506172839,0,0,0.06172839506172839,0,0)" xlink:href="#bt"/><use transform="matrix(0.06172839506172839,0,0,0.06172839506172839,14.814814814814813,0)" xlink:href="#bu"/><use transform="matrix(0.06172839506172839,0,0,0.06172839506172839,27.160493827160494,0)" xlink:href="#bv"/><use transform="matrix(0.06172839506172839,0,0,0.06172839506172839,34.50617283950617,0)" xlink:href="#bw"/><use transform="matrix(0.06172839506172839,0,0,0.06172839506172839,43.148148148148145,0)" xlink:href="#bx"/><use transform="matrix(0.06172839506172839,0,0,0.06172839506172839,55.49382716049382,0)" xlink:href="#by"/><use transform="matrix(0.06172839506172839,0,0,0.06172839506172839,67.8395061728395,0)" xlink:href="#bv"/><use transform="matrix(0.06172839506172839,0,0,0.06172839506172839,75.18518518518519,0)" xlink:href="#bz"/><use transform="matrix(0.06172839506172839,0,0,0.06172839506172839,81.35802469135803,0)" xlink:href="#bA"/><use transform="matrix(0.06172839506172839,0,0,0.06172839506172839,94.87654320987654,0)" xlink:href="#bB"/><use transform="matrix(0.06172839506172839,0,0,0.06172839506172839,108.39506172839506,0)" xlink:href="#bC"/></g><path fill="#3a414a" d="M16-82v-28h88v28H16" id="bD"/><use transform="matrix(0.06172839506172839,0,0,0.06172839506172839,0,0)" xlink:href="#bD" id="G"/><path fill="#3a414a" d="M233-177c-1 41-23 64-60 70L243 0h-38l-65-103H63V0H30v-248c88 3 205-21 203 71zM63-129c60-2 137 13 137-47 0-61-80-42-137-45v92" id="bE"/><path fill="#3a414a" d="M100-194c63 0 86 42 84 106H49c0 40 14 67 53 68 26 1 43-12 49-29l28 8c-11 28-37 45-77 45C44 4 14-33 15-96c1-61 26-98 85-98zm52 81c6-60-76-77-97-28-3 7-6 17-6 28h103" id="bF"/><path fill="#3a414a" d="M135-143c-3-34-86-38-87 0 15 53 115 12 119 90S17 21 10-45l28-5c4 36 97 45 98 0-10-56-113-15-118-90-4-57 82-63 122-42 12 7 21 19 24 35" id="bG"/><path fill="#3a414a" d="M115-194c55 1 70 41 70 98S169 2 115 4C84 4 66-9 55-30l1 105H24l-1-265h31l2 30c10-21 28-34 59-34zm-8 174c40 0 45-34 45-75s-6-73-45-74c-42 0-51 32-51 76 0 43 10 73 51 73" id="bH"/><path fill="#3a414a" d="M100-194c62-1 85 37 85 99 1 63-27 99-86 99S16-35 15-95c0-66 28-99 85-99zM99-20c44 1 53-31 53-75 0-43-8-75-51-75s-53 32-53 75 10 74 51 75" id="bI"/><path fill="#3a414a" d="M117-194c89-4 53 116 60 194h-32v-121c0-31-8-49-39-48C34-167 62-67 57 0H25l-1-190h30c1 10-1 24 2 32 11-22 29-35 61-36" id="bJ"/><g id="H"><use transform="matrix(0.06172839506172839,0,0,0.06172839506172839,0,0)" xlink:href="#bE"/><use transform="matrix(0.06172839506172839,0,0,0.06172839506172839,15.987654320987653,0)" xlink:href="#bF"/><use transform="matrix(0.06172839506172839,0,0,0.06172839506172839,28.333333333333332,0)" xlink:href="#bG"/><use transform="matrix(0.06172839506172839,0,0,0.06172839506172839,39.44444444444444,0)" xlink:href="#bH"/><use transform="matrix(0.06172839506172839,0,0,0.06172839506172839,51.79012345679012,0)" xlink:href="#bI"/><use transform="matrix(0.06172839506172839,0,0,0.06172839506172839,64.1358024691358,0)" xlink:href="#bJ"/><use transform="matrix(0.06172839506172839,0,0,0.06172839506172839,76.48148148148148,0)" xlink:href="#bG"/><use transform="matrix(0.06172839506172839,0,0,0.06172839506172839,87.5925925925926,0)" xlink:href="#bF"/></g><path fill="#3a414a" d="M212-179c-10-28-35-45-73-45-59 0-87 40-87 99 0 60 29 101 89 101 43 0 62-24 78-52l27 14C228-24 195 4 139 4 59 4 22-46 18-125c-6-104 99-153 187-111 19 9 31 26 39 46" id="bK"/><path fill="#3a414a" d="M59-47c-2 24 18 29 38 22v24C64 9 27 4 27-40v-127H5v-23h24l9-43h21v43h35v23H59v120" id="bL"/><path fill="#3a414a" d="M141 0L90-78 38 0H4l68-98-65-92h35l48 74 47-74h35l-64 92 68 98h-35" id="bM"/><g id="I"><use transform="matrix(0.06172839506172839,0,0,0.06172839506172839,0,0)" xlink:href="#bK"/><use transform="matrix(0.06172839506172839,0,0,0.06172839506172839,15.987654320987653,0)" xlink:href="#bI"/><use transform="matrix(0.06172839506172839,0,0,0.06172839506172839,28.333333333333332,0)" xlink:href="#bJ"/><use transform="matrix(0.06172839506172839,0,0,0.06172839506172839,40.67901234567901,0)" xlink:href="#bL"/><use transform="matrix(0.06172839506172839,0,0,0.06172839506172839,46.851851851851855,0)" xlink:href="#bF"/><use transform="matrix(0.06172839506172839,0,0,0.06172839506172839,59.19753086419753,0)" xlink:href="#bM"/><use transform="matrix(0.06172839506172839,0,0,0.06172839506172839,70.30864197530865,0)" xlink:href="#bL"/></g><path fill="#3a414a" d="M30-248c118-7 216 8 213 122C240-48 200 0 122 0H30v-248zM63-27c89 8 146-16 146-99s-60-101-146-95v194" id="bN"/><path fill="#3a414a" d="M24-231v-30h32v30H24zM24 0v-190h32V0H24" id="bO"/><path fill="#3a414a" d="M101-234c-31-9-42 10-38 44h38v23H63V0H32v-167H5v-23h27c-7-52 17-82 69-68v24" id="bP"/><path fill="#3a414a" d="M96-169c-40 0-48 33-48 73s9 75 48 75c24 0 41-14 43-38l32 2c-6 37-31 61-74 61-59 0-76-41-82-99-10-93 101-131 147-64 4 7 5 14 7 22l-32 3c-4-21-16-35-41-35" id="bQ"/><path fill="#3a414a" d="M84 4C-5 8 30-112 23-190h32v120c0 31 7 50 39 49 72-2 45-101 50-169h31l1 190h-30c-1-10 1-25-2-33-11 22-28 36-60 37" id="bR"/><path fill="#3a414a" d="M24 0v-261h32V0H24" id="bS"/><path fill="#3a414a" d="M179-190L93 31C79 59 56 82 12 73V49c39 6 53-20 64-50L1-190h34L92-34l54-156h33" id="bT"/><g id="J"><use transform="matrix(0.06172839506172839,0,0,0.06172839506172839,0,0)" xlink:href="#bN"/><use transform="matrix(0.06172839506172839,0,0,0.06172839506172839,15.987654320987653,0)" xlink:href="#bO"/><use transform="matrix(0.06172839506172839,0,0,0.06172839506172839,20.864197530864196,0)" xlink:href="#bP"/><use transform="matrix(0.06172839506172839,0,0,0.06172839506172839,26.604938271604937,0)" xlink:href="#bP"/><use transform="matrix(0.06172839506172839,0,0,0.06172839506172839,32.77777777777778,0)" xlink:href="#bO"/><use transform="matrix(0.06172839506172839,0,0,0.06172839506172839,37.65432098765432,0)" xlink:href="#bQ"/><use transform="matrix(0.06172839506172839,0,0,0.06172839506172839,48.76543209876543,0)" xlink:href="#bR"/><use transform="matrix(0.06172839506172839,0,0,0.06172839506172839,61.11111111111111,0)" xlink:href="#bS"/><use transform="matrix(0.06172839506172839,0,0,0.06172839506172839,65.98765432098764,0)" xlink:href="#bL"/><use transform="matrix(0.06172839506172839,0,0,0.06172839506172839,72.16049382716048,0)" xlink:href="#bT"/></g><path d="M27 0v-27h64v-190l-56 39v-29l58-41h29v221h61V0H27" id="bU"/><g id="K"><use transform="matrix(0.06172839506172839,0,0,0.06172839506172839,0,0)" xlink:href="#bU"/><use transform="matrix(0.06172839506172839,0,0,0.06172839506172839,10.679012345679013,0)" xlink:href="#bU"/></g><path d="M212-179c-10-28-35-45-73-45-59 0-87 40-87 99 0 60 29 101 89 101 43 0 62-24 78-52l27 14C228-24 195 4 139 4 59 4 22-46 18-125c-6-104 99-153 187-111 19 9 31 26 39 46" id="bV"/><g id="L"><use transform="matrix(0.06172839506172839,0,0,0.06172839506172839,0,0)" xlink:href="#bV"/><use transform="matrix(0.06172839506172839,0,0,0.06172839506172839,15.987654320987653,0)" xlink:href="#aX"/><use transform="matrix(0.06172839506172839,0,0,0.06172839506172839,28.333333333333332,0)" xlink:href="#aF"/><use transform="matrix(0.06172839506172839,0,0,0.06172839506172839,40.67901234567901,0)" xlink:href="#aV"/><use transform="matrix(0.06172839506172839,0,0,0.06172839506172839,46.851851851851855,0)" xlink:href="#aT"/><use transform="matrix(0.06172839506172839,0,0,0.06172839506172839,59.19753086419753,0)" xlink:href="#bb"/><use transform="matrix(0.06172839506172839,0,0,0.06172839506172839,70.30864197530865,0)" xlink:href="#aV"/></g><path fill="#3a414a" d="M68-36c1 33-1 63-14 82H32c9-13 17-26 17-46H33v-36h35zM33-154v-36h35v36H33" id="bW"/><g id="M"><use transform="matrix(0.06172839506172839,0,0,0.06172839506172839,0,0)" xlink:href="#br"/><use transform="matrix(0.06172839506172839,0,0,0.06172839506172839,17.28395061728395,0)" xlink:href="#aC"/><use transform="matrix(0.06172839506172839,0,0,0.06172839506172839,29.629629629629626,0)" xlink:href="#aT"/><use transform="matrix(0.06172839506172839,0,0,0.06172839506172839,41.9753086419753,0)" xlink:href="#aZ"/><use transform="matrix(0.06172839506172839,0,0,0.06172839506172839,53.08641975308642,0)" xlink:href="#aV"/><use transform="matrix(0.06172839506172839,0,0,0.06172839506172839,59.25925925925926,0)" xlink:href="#bj"/><use transform="matrix(0.06172839506172839,0,0,0.06172839506172839,64.1358024691358,0)" xlink:href="#aX"/><use transform="matrix(0.06172839506172839,0,0,0.06172839506172839,76.48148148148148,0)" xlink:href="#aF"/><use transform="matrix(0.06172839506172839,0,0,0.06172839506172839,88.82716049382717,0)" xlink:href="#aZ"/><use transform="matrix(0.06172839506172839,0,0,0.06172839506172839,99.93827160493828,0)" xlink:href="#bW"/></g><g id="N"><use transform="matrix(0.06172839506172839,0,0,0.06172839506172839,0,0)" xlink:href="#bV"/><use transform="matrix(0.06172839506172839,0,0,0.06172839506172839,15.987654320987653,0)" xlink:href="#aX"/><use transform="matrix(0.06172839506172839,0,0,0.06172839506172839,28.333333333333332,0)" xlink:href="#aU"/><use transform="matrix(0.06172839506172839,0,0,0.06172839506172839,40.67901234567901,0)" xlink:href="#bj"/><use transform="matrix(0.06172839506172839,0,0,0.06172839506172839,45.55555555555556,0)" xlink:href="#aF"/><use transform="matrix(0.06172839506172839,0,0,0.06172839506172839,57.901234567901234,0)" xlink:href="#bk"/></g><path d="M190 0L58-211 59 0H30v-248h39L202-35l-2-213h31V0h-41" id="bX"/><g id="O"><use transform="matrix(0.06172839506172839,0,0,0.06172839506172839,0,0)" xlink:href="#bX"/><use transform="matrix(0.06172839506172839,0,0,0.06172839506172839,15.987654320987653,0)" xlink:href="#aX"/><use transform="matrix(0.06172839506172839,0,0,0.06172839506172839,28.333333333333332,0)" xlink:href="#aV"/><use transform="matrix(0.06172839506172839,0,0,0.06172839506172839,34.50617283950617,0)" xlink:href="#aT"/><use transform="matrix(0.06172839506172839,0,0,0.06172839506172839,46.85185185185185,0)" xlink:href="#aZ"/></g><path d="M143 4C61 4 22-44 18-125c-5-107 100-154 193-111 17 8 29 25 37 43l-32 9c-13-25-37-40-76-40-61 0-88 39-88 99 0 61 29 100 91 101 35 0 62-11 79-27v-45h-74v-28h105v86C228-13 192 4 143 4" id="bY"/><path d="M127-220V0H93v-220H8v-28h204v28h-85" id="bZ"/><path d="M16-82v-28h88v28H16" id="ca"/><path d="M115-194c53 0 69 39 70 98 0 66-23 100-70 100C84 3 66-7 56-30L54 0H23l1-261h32v101c10-23 28-34 59-34zm-8 174c40 0 45-34 45-75 0-40-5-75-45-74-42 0-51 32-51 76 0 43 10 73 51 73" id="cb"/><g id="P"><use transform="matrix(0.06172839506172839,0,0,0.06172839506172839,0,0)" xlink:href="#bY"/><use transform="matrix(0.06172839506172839,0,0,0.06172839506172839,17.28395061728395,0)" xlink:href="#bh"/><use transform="matrix(0.06172839506172839,0,0,0.06172839506172839,32.09876543209876,0)" xlink:href="#bZ"/><use transform="matrix(0.06172839506172839,0,0,0.06172839506172839,45.61728395061728,0)" xlink:href="#bp"/><use transform="matrix(0.06172839506172839,0,0,0.06172839506172839,57.962962962962955,0)" xlink:href="#ca"/><use transform="matrix(0.06172839506172839,0,0,0.06172839506172839,65.30864197530863,0)" xlink:href="#bZ"/><use transform="matrix(0.06172839506172839,0,0,0.06172839506172839,78.02469135802468,0)" xlink:href="#aC"/><use transform="matrix(0.06172839506172839,0,0,0.06172839506172839,90.37037037037037,0)" xlink:href="#aY"/><use transform="matrix(0.06172839506172839,0,0,0.06172839506172839,97.71604938271605,0)" xlink:href="#cb"/><use transform="matrix(0.06172839506172839,0,0,0.06172839506172839,110.06172839506173,0)" xlink:href="#aX"/></g><g id="Q"><use transform="matrix(0.06172839506172839,0,0,0.06172839506172839,0,0)" xlink:href="#bl"/><use transform="matrix(0.06172839506172839,0,0,0.06172839506172839,7.345679012345679,0)" xlink:href="#bY"/><use transform="matrix(0.06172839506172839,0,0,0.06172839506172839,24.629629629629626,0)" xlink:href="#bh"/><use transform="matrix(0.06172839506172839,0,0,0.06172839506172839,39.44444444444444,0)" xlink:href="#bZ"/><use transform="matrix(0.06172839506172839,0,0,0.06172839506172839,52.96296296296296,0)" xlink:href="#bp"/><use transform="matrix(0.06172839506172839,0,0,0.06172839506172839,65.30864197530865,0)" xlink:href="#bb"/><use transform="matrix(0.06172839506172839,0,0,0.06172839506172839,76.41975308641976,0)" xlink:href="#bU"/><use transform="matrix(0.06172839506172839,0,0,0.06172839506172839,88.76543209876544,0)" xlink:href="#bq"/></g><path d="M68-38c1 34 0 65-14 84H32c9-13 17-26 17-46H33v-38h35" id="cc"/><g id="R"><use transform="matrix(0.06172839506172839,0,0,0.06172839506172839,0,0)" xlink:href="#bY"/><use transform="matrix(0.06172839506172839,0,0,0.06172839506172839,17.28395061728395,0)" xlink:href="#bh"/><use transform="matrix(0.06172839506172839,0,0,0.06172839506172839,32.09876543209876,0)" xlink:href="#bZ"/><use transform="matrix(0.06172839506172839,0,0,0.06172839506172839,45.61728395061728,0)" xlink:href="#bp"/><use transform="matrix(0.06172839506172839,0,0,0.06172839506172839,57.962962962962955,0)" xlink:href="#ca"/><use transform="matrix(0.06172839506172839,0,0,0.06172839506172839,65.30864197530863,0)" xlink:href="#bZ"/><use transform="matrix(0.06172839506172839,0,0,0.06172839506172839,78.02469135802468,0)" xlink:href="#aC"/><use transform="matrix(0.06172839506172839,0,0,0.06172839506172839,90.37037037037037,0)" xlink:href="#aY"/><use transform="matrix(0.06172839506172839,0,0,0.06172839506172839,97.71604938271605,0)" xlink:href="#cb"/><use transform="matrix(0.06172839506172839,0,0,0.06172839506172839,110.06172839506173,0)" xlink:href="#aX"/><use transform="matrix(0.06172839506172839,0,0,0.06172839506172839,122.40740740740742,0)" xlink:href="#cc"/></g><use transform="matrix(0.06172839506172839,0,0,0.06172839506172839,0,0)" xlink:href="#bg" id="S"/><g id="T"><use transform="matrix(0.06172839506172839,0,0,0.06172839506172839,0,0)" xlink:href="#aV"/><use transform="matrix(0.06172839506172839,0,0,0.06172839506172839,6.172839506172839,0)" xlink:href="#bj"/><use transform="matrix(0.06172839506172839,0,0,0.06172839506172839,11.049382716049383,0)" xlink:href="#aD"/><use transform="matrix(0.06172839506172839,0,0,0.06172839506172839,29.50617283950617,0)" xlink:href="#aT"/><use transform="matrix(0.06172839506172839,0,0,0.06172839506172839,41.85185185185185,0)" xlink:href="#aZ"/></g><path d="M206 0h-36l-40-164L89 0H53L-1-190h32L70-26l43-164h34l41 164 42-164h31" id="cd"/><g id="U"><use transform="matrix(0.06172839506172839,0,0,0.06172839506172839,0,0)" xlink:href="#cd"/><use transform="matrix(0.06172839506172839,0,0,0.06172839506172839,15.987654320987653,0)" xlink:href="#bj"/><use transform="matrix(0.06172839506172839,0,0,0.06172839506172839,20.864197530864196,0)" xlink:href="#aV"/><use transform="matrix(0.06172839506172839,0,0,0.06172839506172839,27.037037037037035,0)" xlink:href="#aW"/></g><path d="M179-190L93 31C79 59 56 82 12 73V49c39 6 53-20 64-50L1-190h34L92-34l54-156h33" id="ce"/><g id="V"><use transform="matrix(0.06172839506172839,0,0,0.06172839506172839,0,0)" xlink:href="#bm"/><use transform="matrix(0.06172839506172839,0,0,0.06172839506172839,14.814814814814813,0)" xlink:href="#ce"/><use transform="matrix(0.06172839506172839,0,0,0.06172839506172839,25.925925925925924,0)" xlink:href="#aF"/><use transform="matrix(0.06172839506172839,0,0,0.06172839506172839,38.2716049382716,0)" xlink:href="#aV"/><use transform="matrix(0.06172839506172839,0,0,0.06172839506172839,44.44444444444444,0)" xlink:href="#aW"/><use transform="matrix(0.06172839506172839,0,0,0.06172839506172839,56.79012345679012,0)" xlink:href="#aT"/><use transform="matrix(0.06172839506172839,0,0,0.06172839506172839,69.1358024691358,0)" xlink:href="#aZ"/><use transform="matrix(0.06172839506172839,0,0,0.06172839506172839,80.24691358024691,0)" xlink:href="#bj"/><use transform="matrix(0.06172839506172839,0,0,0.06172839506172839,85.12345679012346,0)" xlink:href="#aZ"/></g><g id="W"><use transform="matrix(0.06172839506172839,0,0,0.06172839506172839,0,0)" xlink:href="#bl"/><use transform="matrix(0.06172839506172839,0,0,0.06172839506172839,7.345679012345679,0)" xlink:href="#bY"/><use transform="matrix(0.06172839506172839,0,0,0.06172839506172839,24.629629629629626,0)" xlink:href="#bh"/><use transform="matrix(0.06172839506172839,0,0,0.06172839506172839,39.44444444444444,0)" xlink:href="#bZ"/><use transform="matrix(0.06172839506172839,0,0,0.06172839506172839,52.96296296296296,0)" xlink:href="#bp"/><use transform="matrix(0.06172839506172839,0,0,0.06172839506172839,65.30864197530865,0)" xlink:href="#bb"/><use transform="matrix(0.06172839506172839,0,0,0.06172839506172839,76.41975308641976,0)" xlink:href="#bg"/><use transform="matrix(0.06172839506172839,0,0,0.06172839506172839,88.76543209876544,0)" xlink:href="#bq"/></g><g id="X"><use transform="matrix(0.06172839506172839,0,0,0.06172839506172839,0,0)" xlink:href="#ba"/><use transform="matrix(0.06172839506172839,0,0,0.06172839506172839,14.814814814814813,0)" xlink:href="#be"/><use transform="matrix(0.06172839506172839,0,0,0.06172839506172839,19.691358024691354,0)" xlink:href="#bj"/><use transform="matrix(0.06172839506172839,0,0,0.06172839506172839,24.5679012345679,0)" xlink:href="#bc"/><use transform="matrix(0.06172839506172839,0,0,0.06172839506172839,35.67901234567901,0)" xlink:href="#bj"/><use transform="matrix(0.06172839506172839,0,0,0.06172839506172839,40.55555555555556,0)" xlink:href="#aV"/></g><path d="M54-142c48-35 137-8 131 61C196 18 31 33 14-55l32-4c7 23 22 37 52 37 35-1 51-22 54-58 4-55-73-65-99-34H22l8-134h141v27H59" id="cf"/><use transform="matrix(0.06172839506172839,0,0,0.06172839506172839,0,0)" xlink:href="#cf" id="Y"/><g id="Z"><use transform="matrix(0.06172839506172839,0,0,0.06172839506172839,0,0)" xlink:href="#aB"/><use transform="matrix(0.06172839506172839,0,0,0.06172839506172839,15.987654320987653,0)" xlink:href="#aC"/><use transform="matrix(0.06172839506172839,0,0,0.06172839506172839,28.333333333333332,0)" xlink:href="#aD"/><use transform="matrix(0.06172839506172839,0,0,0.06172839506172839,46.79012345679012,0)" xlink:href="#aE"/><use transform="matrix(0.06172839506172839,0,0,0.06172839506172839,59.1358024691358,0)" xlink:href="#aF"/></g><g id="aa"><use transform="matrix(0.06172839506172839,0,0,0.06172839506172839,0,0)" xlink:href="#bs"/><use transform="matrix(0.06172839506172839,0,0,0.06172839506172839,15.987654320987653,0)" xlink:href="#aT"/><use transform="matrix(0.06172839506172839,0,0,0.06172839506172839,28.333333333333332,0)" xlink:href="#bd"/><use transform="matrix(0.06172839506172839,0,0,0.06172839506172839,39.44444444444444,0)" xlink:href="#bj"/><use transform="matrix(0.06172839506172839,0,0,0.06172839506172839,44.32098765432099,0)" xlink:href="#aT"/><use transform="matrix(0.06172839506172839,0,0,0.06172839506172839,56.666666666666664,0)" xlink:href="#cd"/><use transform="matrix(0.06172839506172839,0,0,0.06172839506172839,72.65432098765432,0)" xlink:href="#aT"/><use transform="matrix(0.06172839506172839,0,0,0.06172839506172839,85,0)" xlink:href="#aY"/><use transform="matrix(0.06172839506172839,0,0,0.06172839506172839,92.34567901234568,0)" xlink:href="#aZ"/></g><g id="ab"><use transform="matrix(0.06172839506172839,0,0,0.06172839506172839,0,0)" xlink:href="#ba"/><use transform="matrix(0.06172839506172839,0,0,0.06172839506172839,14.814814814814813,0)" xlink:href="#bb"/><use transform="matrix(0.06172839506172839,0,0,0.06172839506172839,25.925925925925924,0)" xlink:href="#aV"/><use transform="matrix(0.06172839506172839,0,0,0.06172839506172839,32.098765432098766,0)" xlink:href="#aY"/><use transform="matrix(0.06172839506172839,0,0,0.06172839506172839,39.44444444444444,0)" xlink:href="#aE"/><use transform="matrix(0.06172839506172839,0,0,0.06172839506172839,51.79012345679012,0)" xlink:href="#bc"/><use transform="matrix(0.06172839506172839,0,0,0.06172839506172839,62.90123456790123,0)" xlink:href="#aV"/><use transform="matrix(0.06172839506172839,0,0,0.06172839506172839,69.07407407407406,0)" xlink:href="#bj"/><use transform="matrix(0.06172839506172839,0,0,0.06172839506172839,73.9506172839506,0)" xlink:href="#aX"/><use transform="matrix(0.06172839506172839,0,0,0.06172839506172839,86.29629629629629,0)" xlink:href="#aF"/></g><g id="ac"><use transform="matrix(0.06172839506172839,0,0,0.06172839506172839,0,0)" xlink:href="#ba"/><use transform="matrix(0.06172839506172839,0,0,0.06172839506172839,14.814814814814813,0)" xlink:href="#bb"/><use transform="matrix(0.06172839506172839,0,0,0.06172839506172839,25.925925925925924,0)" xlink:href="#aV"/><use transform="matrix(0.06172839506172839,0,0,0.06172839506172839,32.098765432098766,0)" xlink:href="#aY"/><use transform="matrix(0.06172839506172839,0,0,0.06172839506172839,39.44444444444444,0)" xlink:href="#aE"/><use transform="matrix(0.06172839506172839,0,0,0.06172839506172839,51.79012345679012,0)" xlink:href="#bc"/><use transform="matrix(0.06172839506172839,0,0,0.06172839506172839,62.90123456790123,0)" xlink:href="#aV"/><use transform="matrix(0.06172839506172839,0,0,0.06172839506172839,69.07407407407406,0)" xlink:href="#bj"/><use transform="matrix(0.06172839506172839,0,0,0.06172839506172839,73.9506172839506,0)" xlink:href="#aX"/><use transform="matrix(0.06172839506172839,0,0,0.06172839506172839,86.29629629629629,0)" xlink:href="#aF"/></g><g id="ad"><use transform="matrix(0.06172839506172839,0,0,0.06172839506172839,0,0)" xlink:href="#bt"/><use transform="matrix(0.06172839506172839,0,0,0.06172839506172839,14.814814814814813,0)" xlink:href="#bu"/><use transform="matrix(0.06172839506172839,0,0,0.06172839506172839,27.160493827160494,0)" xlink:href="#bv"/><use transform="matrix(0.06172839506172839,0,0,0.06172839506172839,34.50617283950617,0)" xlink:href="#bw"/><use transform="matrix(0.06172839506172839,0,0,0.06172839506172839,43.148148148148145,0)" xlink:href="#bx"/><use transform="matrix(0.06172839506172839,0,0,0.06172839506172839,55.49382716049382,0)" xlink:href="#by"/><use transform="matrix(0.06172839506172839,0,0,0.06172839506172839,67.8395061728395,0)" xlink:href="#bv"/><use transform="matrix(0.06172839506172839,0,0,0.06172839506172839,75.18518518518519,0)" xlink:href="#bz"/><use transform="matrix(0.06172839506172839,0,0,0.06172839506172839,81.35802469135803,0)" xlink:href="#bA"/><use transform="matrix(0.06172839506172839,0,0,0.06172839506172839,94.87654320987654,0)" xlink:href="#bB"/><use transform="matrix(0.06172839506172839,0,0,0.06172839506172839,108.39506172839506,0)" xlink:href="#bC"/></g><use transform="matrix(0.06172839506172839,0,0,0.06172839506172839,0,0)" xlink:href="#bD" id="ae"/><g id="af"><use transform="matrix(0.06172839506172839,0,0,0.06172839506172839,0,0)" xlink:href="#bE"/><use transform="matrix(0.06172839506172839,0,0,0.06172839506172839,15.987654320987653,0)" xlink:href="#bF"/><use transform="matrix(0.06172839506172839,0,0,0.06172839506172839,28.333333333333332,0)" xlink:href="#bG"/><use transform="matrix(0.06172839506172839,0,0,0.06172839506172839,39.44444444444444,0)" xlink:href="#bH"/><use transform="matrix(0.06172839506172839,0,0,0.06172839506172839,51.79012345679012,0)" xlink:href="#bI"/><use transform="matrix(0.06172839506172839,0,0,0.06172839506172839,64.1358024691358,0)" xlink:href="#bJ"/><use transform="matrix(0.06172839506172839,0,0,0.06172839506172839,76.48148148148148,0)" xlink:href="#bG"/><use transform="matrix(0.06172839506172839,0,0,0.06172839506172839,87.5925925925926,0)" xlink:href="#bF"/></g><g id="ag"><use transform="matrix(0.06172839506172839,0,0,0.06172839506172839,0,0)" xlink:href="#bK"/><use transform="matrix(0.06172839506172839,0,0,0.06172839506172839,15.987654320987653,0)" xlink:href="#bI"/><use transform="matrix(0.06172839506172839,0,0,0.06172839506172839,28.333333333333332,0)" xlink:href="#bJ"/><use transform="matrix(0.06172839506172839,0,0,0.06172839506172839,40.67901234567901,0)" xlink:href="#bL"/><use transform="matrix(0.06172839506172839,0,0,0.06172839506172839,46.851851851851855,0)" xlink:href="#bF"/><use transform="matrix(0.06172839506172839,0,0,0.06172839506172839,59.19753086419753,0)" xlink:href="#bM"/><use transform="matrix(0.06172839506172839,0,0,0.06172839506172839,70.30864197530865,0)" xlink:href="#bL"/></g><path d="M137 0h-34L2-248h35l83 218 83-218h36" id="cg"/><g id="ah"><use transform="matrix(0.06172839506172839,0,0,0.06172839506172839,0,0)" xlink:href="#cg"/><use transform="matrix(0.06172839506172839,0,0,0.06172839506172839,13.148148148148147,0)" xlink:href="#aE"/><use transform="matrix(0.06172839506172839,0,0,0.06172839506172839,25.493827160493826,0)" xlink:href="#be"/><use transform="matrix(0.06172839506172839,0,0,0.06172839506172839,30.370370370370367,0)" xlink:href="#bj"/><use transform="matrix(0.06172839506172839,0,0,0.06172839506172839,35.24691358024691,0)" xlink:href="#aU"/><use transform="matrix(0.06172839506172839,0,0,0.06172839506172839,47.59259259259259,0)" xlink:href="#aE"/><use transform="matrix(0.06172839506172839,0,0,0.06172839506172839,59.938271604938265,0)" xlink:href="#aV"/><use transform="matrix(0.06172839506172839,0,0,0.06172839506172839,66.1111111111111,0)" xlink:href="#bj"/><use transform="matrix(0.06172839506172839,0,0,0.06172839506172839,70.98765432098764,0)" xlink:href="#aX"/><use transform="matrix(0.06172839506172839,0,0,0.06172839506172839,83.33333333333333,0)" xlink:href="#aF"/></g><g id="ai"><use transform="matrix(0.06172839506172839,0,0,0.06172839506172839,0,0)" xlink:href="#aE"/><use transform="matrix(0.06172839506172839,0,0,0.06172839506172839,12.345679012345679,0)" xlink:href="#aF"/><use transform="matrix(0.06172839506172839,0,0,0.06172839506172839,24.691358024691358,0)" xlink:href="#aU"/></g><path d="M101-234c-31-9-42 10-38 44h38v23H63V0H32v-167H5v-23h27c-7-52 17-82 69-68v24" id="ch"/><g id="aj"><use transform="matrix(0.06172839506172839,0,0,0.06172839506172839,0,0)" xlink:href="#cg"/><use transform="matrix(0.06172839506172839,0,0,0.06172839506172839,13.580246913580245,0)" xlink:href="#aT"/><use transform="matrix(0.06172839506172839,0,0,0.06172839506172839,25.925925925925924,0)" xlink:href="#aY"/><use transform="matrix(0.06172839506172839,0,0,0.06172839506172839,33.2716049382716,0)" xlink:href="#bj"/><use transform="matrix(0.06172839506172839,0,0,0.06172839506172839,38.148148148148145,0)" xlink:href="#ch"/><use transform="matrix(0.06172839506172839,0,0,0.06172839506172839,44.32098765432099,0)" xlink:href="#bj"/><use transform="matrix(0.06172839506172839,0,0,0.06172839506172839,49.19753086419753,0)" xlink:href="#bc"/><use transform="matrix(0.06172839506172839,0,0,0.06172839506172839,60.308641975308646,0)" xlink:href="#aE"/><use transform="matrix(0.06172839506172839,0,0,0.06172839506172839,72.65432098765433,0)" xlink:href="#aV"/><use transform="matrix(0.06172839506172839,0,0,0.06172839506172839,78.82716049382717,0)" xlink:href="#bj"/><use transform="matrix(0.06172839506172839,0,0,0.06172839506172839,83.70370370370371,0)" xlink:href="#aX"/><use transform="matrix(0.06172839506172839,0,0,0.06172839506172839,96.0493827160494,0)" xlink:href="#aF"/></g><g id="ak"><use transform="matrix(0.06172839506172839,0,0,0.06172839506172839,0,0)" xlink:href="#aG"/><use transform="matrix(0.06172839506172839,0,0,0.06172839506172839,14.814814814814813,0)" xlink:href="#aF"/><use transform="matrix(0.06172839506172839,0,0,0.06172839506172839,27.160493827160494,0)" xlink:href="#aE"/><use transform="matrix(0.06172839506172839,0,0,0.06172839506172839,39.50617283950617,0)" xlink:href="#be"/><use transform="matrix(0.06172839506172839,0,0,0.06172839506172839,44.382716049382715,0)" xlink:href="#ce"/><use transform="matrix(0.06172839506172839,0,0,0.06172839506172839,55.49382716049382,0)" xlink:href="#aZ"/><use transform="matrix(0.06172839506172839,0,0,0.06172839506172839,66.60493827160494,0)" xlink:href="#bj"/><use transform="matrix(0.06172839506172839,0,0,0.06172839506172839,71.48148148148148,0)" xlink:href="#aZ"/></g><g id="al"><use transform="matrix(0.06172839506172839,0,0,0.06172839506172839,0,0)" xlink:href="#ba"/><use transform="matrix(0.06172839506172839,0,0,0.06172839506172839,14.814814814814813,0)" xlink:href="#bd"/><use transform="matrix(0.06172839506172839,0,0,0.06172839506172839,25.925925925925924,0)" xlink:href="#aE"/><use transform="matrix(0.06172839506172839,0,0,0.06172839506172839,38.2716049382716,0)" xlink:href="#be"/><use transform="matrix(0.06172839506172839,0,0,0.06172839506172839,43.148148148148145,0)" xlink:href="#aC"/><use transform="matrix(0.06172839506172839,0,0,0.06172839506172839,55.49382716049382,0)" xlink:href="#aE"/><use transform="matrix(0.06172839506172839,0,0,0.06172839506172839,67.8395061728395,0)" xlink:href="#aV"/><use transform="matrix(0.06172839506172839,0,0,0.06172839506172839,74.01234567901234,0)" xlink:href="#bj"/><use transform="matrix(0.06172839506172839,0,0,0.06172839506172839,78.88888888888889,0)" xlink:href="#aX"/><use transform="matrix(0.06172839506172839,0,0,0.06172839506172839,91.23456790123457,0)" xlink:href="#aF"/></g><g id="an"><use transform="matrix(0.06172839506172839,0,0,0.06172839506172839,0,0)" xlink:href="#ba"/><use transform="matrix(0.06172839506172839,0,0,0.06172839506172839,14.814814814814813,0)" xlink:href="#bd"/><use transform="matrix(0.06172839506172839,0,0,0.06172839506172839,25.925925925925924,0)" xlink:href="#aE"/><use transform="matrix(0.06172839506172839,0,0,0.06172839506172839,38.2716049382716,0)" xlink:href="#be"/><use transform="matrix(0.06172839506172839,0,0,0.06172839506172839,43.148148148148145,0)" xlink:href="#aC"/><use transform="matrix(0.06172839506172839,0,0,0.06172839506172839,55.49382716049382,0)" xlink:href="#aE"/><use transform="matrix(0.06172839506172839,0,0,0.06172839506172839,67.8395061728395,0)" xlink:href="#aV"/><use transform="matrix(0.06172839506172839,0,0,0.06172839506172839,74.01234567901234,0)" xlink:href="#bj"/><use transform="matrix(0.06172839506172839,0,0,0.06172839506172839,78.88888888888889,0)" xlink:href="#aX"/><use transform="matrix(0.06172839506172839,0,0,0.06172839506172839,91.23456790123457,0)" xlink:href="#aF"/></g><path fill="#3a414a" d="M205 0l-28-72H64L36 0H1l101-248h38L239 0h-34zm-38-99l-47-123c-12 45-31 82-46 123h93" id="ci"/><path fill="#3a414a" d="M33 0v-248h34V0H33" id="cj"/><path fill="#3a414a" d="M0 4l72-265h28L28 4H0" id="ck"/><path fill="#3a414a" d="M197 0v-115H63V0H30v-248h33v105h134v-105h34V0h-34" id="cl"/><path fill="#3a414a" d="M210-169c-67 3-38 105-44 169h-31v-121c0-29-5-50-35-48C34-165 62-65 56 0H25l-1-190h30c1 10-1 24 2 32 10-44 99-50 107 0 11-21 27-35 58-36 85-2 47 119 55 194h-31v-121c0-29-5-49-35-48" id="cm"/><path fill="#3a414a" d="M141-36C126-15 110 5 73 4 37 3 15-17 15-53c-1-64 63-63 125-63 3-35-9-54-41-54-24 1-41 7-42 31l-33-3c5-37 33-52 76-52 45 0 72 20 72 64v82c-1 20 7 32 28 27v20c-31 9-61-2-59-35zM48-53c0 20 12 33 32 33 41-3 63-29 60-74-43 2-92-5-92 41" id="cn"/><g id="ao"><use transform="matrix(0.06172839506172839,0,0,0.06172839506172839,0,0)" xlink:href="#ci"/><use transform="matrix(0.06172839506172839,0,0,0.06172839506172839,14.814814814814813,0)" xlink:href="#cj"/><use transform="matrix(0.06172839506172839,0,0,0.06172839506172839,20.98765432098765,0)" xlink:href="#ck"/><use transform="matrix(0.06172839506172839,0,0,0.06172839506172839,27.16049382716049,0)" xlink:href="#cl"/><use transform="matrix(0.06172839506172839,0,0,0.06172839506172839,43.148148148148145,0)" xlink:href="#bR"/><use transform="matrix(0.06172839506172839,0,0,0.06172839506172839,55.49382716049382,0)" xlink:href="#cm"/><use transform="matrix(0.06172839506172839,0,0,0.06172839506172839,73.9506172839506,0)" xlink:href="#cn"/><use transform="matrix(0.06172839506172839,0,0,0.06172839506172839,86.29629629629629,0)" xlink:href="#bJ"/></g><path fill="#3a414a" d="M140-251c81 0 123 46 123 126C263-46 219 4 140 4 59 4 17-45 17-125s42-126 123-126zm0 227c63 0 89-41 89-101s-29-99-89-99c-61 0-89 39-89 99S79-25 140-24" id="co"/><g id="ap"><use transform="matrix(0.06172839506172839,0,0,0.06172839506172839,0,0)" xlink:href="#co"/><use transform="matrix(0.06172839506172839,0,0,0.06172839506172839,17.28395061728395,0)" xlink:href="#bR"/><use transform="matrix(0.06172839506172839,0,0,0.06172839506172839,29.629629629629626,0)" xlink:href="#bL"/><use transform="matrix(0.06172839506172839,0,0,0.06172839506172839,35.80246913580247,0)" xlink:href="#bH"/><use transform="matrix(0.06172839506172839,0,0,0.06172839506172839,48.148148148148145,0)" xlink:href="#bR"/><use transform="matrix(0.06172839506172839,0,0,0.06172839506172839,60.49382716049382,0)" xlink:href="#bL"/></g><g id="aq"><use transform="matrix(0.06172839506172839,0,0,0.06172839506172839,0,0)" xlink:href="#bs"/><use transform="matrix(0.06172839506172839,0,0,0.06172839506172839,15.987654320987653,0)" xlink:href="#aT"/><use transform="matrix(0.06172839506172839,0,0,0.06172839506172839,28.333333333333332,0)" xlink:href="#be"/><use transform="matrix(0.06172839506172839,0,0,0.06172839506172839,33.20987654320987,0)" xlink:href="#aT"/><use transform="matrix(0.06172839506172839,0,0,0.06172839506172839,45.55555555555555,0)" xlink:href="#bd"/><use transform="matrix(0.06172839506172839,0,0,0.06172839506172839,56.66666666666666,0)" xlink:href="#aE"/><use transform="matrix(0.06172839506172839,0,0,0.06172839506172839,69.01234567901234,0)" xlink:href="#aF"/><use transform="matrix(0.06172839506172839,0,0,0.06172839506172839,81.35802469135803,0)" xlink:href="#bc"/><use transform="matrix(0.06172839506172839,0,0,0.06172839506172839,92.46913580246914,0)" xlink:href="#aT"/></g><g id="ar"><use transform="matrix(0.06172839506172839,0,0,0.06172839506172839,0,0)" xlink:href="#bm"/><use transform="matrix(0.06172839506172839,0,0,0.06172839506172839,14.814814814814813,0)" xlink:href="#bc"/><use transform="matrix(0.06172839506172839,0,0,0.06172839506172839,25.925925925925924,0)" xlink:href="#aY"/><use transform="matrix(0.06172839506172839,0,0,0.06172839506172839,33.2716049382716,0)" xlink:href="#aT"/><use transform="matrix(0.06172839506172839,0,0,0.06172839506172839,45.61728395061728,0)" xlink:href="#aT"/><use transform="matrix(0.06172839506172839,0,0,0.06172839506172839,57.962962962962955,0)" xlink:href="#aF"/></g></defs></g></svg>